<svg width="28" height="24" viewBox="0 0 28 24" fill="none" xmlns="http://www.w3.org/2000/svg">
<path d="M13.9997 22.08C13.6644 22.08 13.3292 22.01 13.0497 21.87C10.9597 20.85 7.29384 19.77 4.99149 19.5L4.66739 19.46C3.20328 19.3 1.9962 18.07 1.9962 16.74V4.65999C1.9962 3.86999 2.34268 3.15002 2.97974 2.63002C3.61679 2.11002 4.44381 1.86001 5.31558 1.93001C7.76323 2.11001 11.4738 3.21002 13.575 4.38002L13.8432 4.52003C13.9215 4.55003 14.0891 4.56003 14.1562 4.52003L14.335 4.42C15.0838 4 16.0226 3.58999 17.0509 3.21999C17.3079 3.12999 17.5985 3.16 17.8332 3.3C18.0679 3.44 18.2021 3.67 18.2021 3.92V6.59999L19.1297 6.05C19.4092 5.88 19.7779 5.88 20.0573 6.05L20.985 6.59999V2.78004C20.985 2.42004 21.2756 2.10999 21.6668 2.03999C21.9909 1.98999 22.315 1.95001 22.6056 1.93001C22.628 1.93001 22.7174 1.93001 22.7397 1.93001C23.5556 1.87001 24.3938 2.12003 25.0197 2.64003C25.6568 3.16003 26.0032 3.88 26.0032 4.67V16.74C26.0032 18.08 24.7962 19.3 23.3209 19.46L22.9521 19.5C20.6497 19.77 16.9615 20.86 14.9162 21.87C14.6703 22.01 14.335 22.08 13.9997 22.08ZM5.03617 3.40999C4.67852 3.40999 4.35444 3.51999 4.09738 3.72999C3.81797 3.95999 3.66148 4.28999 3.66148 4.65999V16.74C3.66148 17.33 4.2315 17.9 4.86856 17.98L5.20384 18.02C7.71855 18.32 11.5744 19.45 13.8097 20.55C13.9103 20.59 14.0556 20.6 14.1115 20.58C16.3579 19.47 20.225 18.33 22.7509 18.03L23.1309 17.99C23.7679 17.92 24.338 17.34 24.338 16.75V4.68001C24.338 4.31001 24.1815 3.99001 23.9021 3.75001C23.6226 3.52001 23.2315 3.41001 22.8292 3.43001C22.7956 3.43001 22.695 3.43001 22.6727 3.43001V8.00001C22.6727 8.28001 22.505 8.52999 22.2256 8.65999C21.9462 8.78999 21.6221 8.78001 21.365 8.62001L19.5991 7.57002L17.8332 8.62001C17.5762 8.77001 17.252 8.78999 16.9726 8.65999C16.7044 8.52999 16.5256 8.28001 16.5256 8.00001V5.07002C16.045 5.28002 15.6091 5.49002 15.2291 5.69002L15.0503 5.78999C14.4356 6.12999 13.5639 6.13 12.9715 5.8L12.7033 5.65004C10.8145 4.59004 7.37206 3.56999 5.18147 3.40999C5.12559 3.40999 5.08087 3.40999 5.03617 3.40999Z" fill="white"/>
<path d="M14 21.24C13.5418 21.24 13.1618 20.9 13.1618 20.49V5.48999C13.1618 5.07999 13.5418 4.73999 14 4.73999C14.4582 4.73999 14.8382 5.07999 14.8382 5.48999V20.49C14.8382 20.91 14.4582 21.24 14 21.24Z" fill="white"/>
<path d="M21.8235 8.74999C21.6559 8.74999 21.4994 8.70998 21.3541 8.61998L19.5882 7.57L17.8223 8.61998C17.5653 8.76998 17.2412 8.78996 16.9618 8.65996C16.6935 8.52996 16.5147 8.27999 16.5147 7.99999V3.91997C16.5147 3.60997 16.727 3.33996 17.04 3.21996C18.5823 2.66996 20.27 2.23997 21.6894 2.03997C21.9353 1.99997 22.1812 2.07001 22.3712 2.21001C22.5612 2.35001 22.6618 2.56002 22.6618 2.78002V7.99999C22.6618 8.27999 22.4941 8.52996 22.2147 8.65996C22.0917 8.71996 21.9576 8.74999 21.8235 8.74999ZM19.5882 5.91997C19.7447 5.91997 19.9123 5.95998 20.0576 6.04998L20.9853 6.59996V3.68999C20.0912 3.86999 19.1188 4.12999 18.1912 4.43999V6.59996L19.1188 6.04998C19.2641 5.95998 19.4318 5.91997 19.5882 5.91997Z" fill="white"/>
</svg>
