<svg width="22" height="22" viewBox="0 0 22 22" fill="none" xmlns="http://www.w3.org/2000/svg">
<path d="M18.9998 10.1428C18.9998 5.09338 15.4181 1 10.9999 1C6.58176 1 3.00012 5.09338 3.00012 10.1428" stroke="#F4F4F4" stroke-width="2" stroke-linecap="round" stroke-linejoin="round"/>
<path d="M1 15.2152V13.0703C1 12.0214 1.62458 11.1072 2.5149 10.8528L4.25441 10.3558C4.63309 10.2476 4.99991 10.5749 4.99991 11.021V17.2644C4.99991 17.7106 4.63309 18.0379 4.25441 17.9297L2.5149 17.4327C1.62458 17.1783 1 16.2641 1 15.2152Z" stroke="#F4F4F4" stroke-width="2"/>
<path d="M20.9999 15.2152V13.0703C20.9999 12.0214 20.3753 11.1072 19.485 10.8528L17.7454 10.3558C17.3667 10.2476 16.9999 10.5749 16.9999 11.021V17.2644C16.9999 17.7106 17.3667 18.0379 17.7454 17.9297L19.485 17.4327C20.3753 17.1783 20.9999 16.2641 20.9999 15.2152Z" stroke="#F4F4F4" stroke-width="2"/>
<path d="M18.9997 18.1428V18.7142C18.9997 19.9766 18.1043 21 16.9997 21H13.4998" stroke="#F4F4F4" stroke-width="2" stroke-linecap="round"/>
</svg>
