<svg width="247" height="48" viewBox="0 0 247 48" fill="none" xmlns="http://www.w3.org/2000/svg">
<path d="M32.3955 20.9404H10.2606V20.9436L0.0625 27.0911H24.6529C27.6356 27.0911 30.0526 29.644 30.0526 32.7944C30.0526 34.7278 29.1374 36.436 27.7423 37.4653H27.7571L35.322 31.4304C36.8089 30.4136 37.7952 28.6522 37.7952 26.6437C37.7952 23.4933 35.3753 20.9404 32.3955 20.9404Z" fill="#F4F4F4"/>
<path d="M0.0561523 27.0913H24.6525C27.6352 27.0913 30.0522 29.6442 30.0522 32.7946C30.0522 35.945 27.6352 38.4979 24.6525 38.4979H0.0561523V27.0913Z" fill="#1543BA"/>
<path d="M24.5104 29.4092H19.6528H0V36.173H19.6528H24.5104C26.2788 36.173 27.7124 34.6588 27.7124 32.7911C27.7124 30.9234 26.2788 29.4092 24.5104 29.4092Z" fill="#F4F4F4"/>
<path d="M24.001 31.2837H0.0473633V31.5903H24.001C24.6407 31.5903 25.1621 32.1409 25.1621 32.8167C25.1621 33.4924 24.6407 34.043 24.001 34.043H0.0473633V34.3496H24.001C24.8007 34.3496 25.4523 33.6614 25.4523 32.8167C25.4523 31.972 24.8007 31.2837 24.001 31.2837Z" fill="#1543BA"/>
<path d="M24.3771 30.145H0.0473633V30.4516H24.3771C25.6123 30.4516 26.6193 31.5122 26.6193 32.8199C26.6193 34.1245 25.6152 35.1882 24.3771 35.1882H0.0473633V35.4948H24.3771C25.7722 35.4948 26.9096 34.2934 26.9096 32.8199C26.9096 31.3432 25.7722 30.145 24.3771 30.145Z" fill="#1543BA"/>
<path d="M23.5863 32.5728H0.0473633V32.8782H23.5863V32.5728Z" fill="#1543BA"/>
<path d="M38.1036 9.50244H15.9686V9.50557L5.77051 15.65H30.3609C33.3436 15.65 35.7606 18.2029 35.7606 21.3533C35.7606 23.2867 34.8454 24.9949 33.4503 26.0242H33.4651L41.03 19.9892C42.5169 18.9725 43.5033 17.2111 43.5033 15.2026C43.5033 12.0553 41.0863 9.50244 38.1036 9.50244Z" fill="#F4F4F4"/>
<path d="M5.76367 15.6499H30.36C33.3427 15.6499 35.7597 18.2028 35.7597 21.3532C35.7597 24.5036 33.3427 27.0565 30.36 27.0565H5.76367V15.6499Z" fill="#1543BA"/>
<path d="M30.2184 17.9717H25.3608H5.71094V24.7355H25.3637H30.2214C31.9897 24.7355 33.4233 23.2213 33.4233 21.3536C33.4203 19.4859 31.9867 17.9717 30.2184 17.9717Z" fill="#F4F4F4"/>
<path d="M29.7085 19.8457H5.75488V20.1523H29.7085C30.3483 20.1523 30.8696 20.7029 30.8696 21.3787C30.8696 22.0544 30.3483 22.6051 29.7085 22.6051H5.75488V22.9117H29.7085C30.5082 22.9117 31.1598 22.2234 31.1598 21.3787C31.1598 20.534 30.5082 19.8457 29.7085 19.8457Z" fill="#1543BA"/>
<path d="M30.0846 18.7041H5.75488V19.0107H30.0846C31.3198 19.0107 32.3269 20.0713 32.3269 21.379C32.3269 22.6836 31.3198 23.7473 30.0846 23.7473H5.75488V24.0539H30.0846C31.4797 24.0539 32.6171 22.8525 32.6171 21.379C32.6171 19.9054 31.4827 18.7041 30.0846 18.7041Z" fill="#1543BA"/>
<path d="M29.2938 21.1313H5.75488V21.4368H29.2938V21.1313Z" fill="#1543BA"/>
<path d="M67.9829 13.1H72.1109V35.5H67.9829V27.052C65.8709 27.8413 63.8656 28.236 61.9669 28.236C59.1083 28.236 56.9003 27.5533 55.3429 26.188C53.8069 24.8013 53.0389 22.8173 53.0389 20.236V13.1H57.1669V19.788C57.1669 21.3667 57.6256 22.572 58.5429 23.404C59.4603 24.236 60.7723 24.652 62.4789 24.652C64.4203 24.652 66.2549 24.2573 67.9829 23.468V13.1ZM91.4769 18.412V21.804H85.4929V35.5H81.4929V21.804H75.4769V18.412H91.4769ZM109.628 27.052C109.628 27.3293 109.607 27.724 109.564 28.236H96.1564C96.3911 29.4947 96.9991 30.4973 97.9804 31.244C98.9831 31.9693 100.22 32.332 101.692 32.332C103.57 32.332 105.116 31.7133 106.332 30.476L108.476 32.94C106.919 34.796 104.626 35.724 101.596 35.724C98.7591 35.724 96.4764 34.9133 94.7484 33.292C93.0204 31.6493 92.1564 29.5373 92.1564 26.956C92.1564 24.4173 92.9884 22.3267 94.6524 20.684C96.3164 19.0413 98.4284 18.22 100.988 18.22C103.506 18.22 105.575 19.0307 107.196 20.652C108.818 22.2733 109.628 24.4067 109.628 27.052ZM100.988 21.42C99.7084 21.42 98.6204 21.804 97.7244 22.572C96.8498 23.3187 96.3164 24.3213 96.1244 25.58H105.82C105.65 24.3427 105.127 23.34 104.252 22.572C103.378 21.804 102.29 21.42 100.988 21.42ZM130.163 32.108H132.755V39.436H129.011V35.5H114.003V18.412H118.003V32.108H126.163V18.412H130.163V32.108Z" fill="#F4F4F4"/>
<path d="M148.503 10.5L148.503 37.5" stroke="white" stroke-opacity="0.25" stroke-linecap="round"/>
<g clip-path="url(#clip0_3611_15000)">
<path d="M193.659 24.4215C192.369 24.4215 191.269 24.8265 190.361 25.6125C189.382 26.47 188.904 27.5419 188.904 28.8757C188.904 30.2096 189.382 31.3053 190.361 32.1389C191.269 32.925 192.392 33.3299 193.683 33.3299H194.304V31.1862H193.826C193.133 31.1862 192.536 30.9956 192.01 30.5907C191.437 30.162 191.15 29.5903 191.15 28.8757C191.15 28.1611 191.437 27.5895 191.986 27.1607C192.512 26.7796 193.109 26.5653 193.826 26.5653H198.08V33.3299H200.35V26.5653H204.292L206.395 24.4215H193.659ZM208.235 24.4215L201.52 30.4001V33.5443L208.235 27.5895V29.9476H206.323L203.886 32.1389H208.211V33.3299H210.624V24.4215H208.235ZM217.148 24.4215V27.8039H214.113V24.2072L211.724 26.3509V33.3299H214.113V29.9476H217.148V33.3299H219.537V24.4215H217.148ZM229.932 24.4215H226.754L222.835 28.0659V24.231L220.517 26.3747V33.3299H222.835V31.1862L223.886 30.2096L227.494 33.5205V30.424L225.583 28.6375L229.932 24.4215ZM244.078 24.1595V27.7562H241.091V24.3739H238.725V31.1862H237.602V24.4215H235.595L231.557 28.1611V24.2548L229.215 26.3985V33.5205L235.26 27.9706V33.3537L241.091 33.3061V29.9238H244.078V33.3061H246.443V26.3033L244.078 24.1595ZM215.547 4.38965L217.458 7.91488L221.664 7.39086L218.08 9.29639L219.752 12.0832L216.742 10.6541L213.564 14.0602L214.902 9.96333L207.279 9.48694L215.308 7.98634L215.547 4.38965Z" fill="white"/>
<path d="M189.429 37.3078V35.164H190.099L190.505 36.6408L190.911 35.164H191.58V37.3078H191.15V35.6166L190.696 37.3078H190.266L189.812 35.6166V37.3078H189.429ZM191.962 36.2359C191.962 36.0215 191.986 35.831 192.058 35.6881C192.106 35.569 192.177 35.4737 192.273 35.4022C192.369 35.307 192.464 35.2593 192.56 35.2117C192.703 35.1641 192.87 35.1164 193.038 35.1164C193.372 35.1164 193.635 35.2117 193.826 35.4022C194.017 35.5928 194.113 35.8786 194.113 36.2121C194.113 36.5694 194.017 36.8314 193.826 37.0219C193.635 37.2125 193.372 37.3078 193.038 37.3078C192.703 37.3078 192.44 37.2125 192.249 37.0219C192.082 36.8552 191.962 36.5694 191.962 36.2359ZM192.44 36.2121C192.44 36.4503 192.488 36.6408 192.608 36.7599C192.727 36.879 192.87 36.9505 193.062 36.9505C193.253 36.9505 193.396 36.879 193.516 36.7599C193.635 36.6408 193.683 36.4503 193.683 36.1883C193.683 35.9501 193.635 35.7595 193.516 35.6404C193.396 35.5213 193.253 35.4499 193.062 35.4499C192.87 35.4499 192.727 35.5213 192.608 35.6404C192.488 35.7833 192.44 35.9739 192.44 36.2121ZM195.953 36.4979L196.383 36.6408C196.311 36.879 196.216 37.0458 196.048 37.1649C195.881 37.284 195.69 37.3316 195.451 37.3316C195.164 37.3316 194.901 37.2363 194.71 37.0458C194.519 36.8552 194.424 36.5932 194.424 36.2359C194.424 35.8786 194.519 35.5928 194.71 35.4022C194.901 35.2117 195.164 35.1164 195.475 35.1164C195.738 35.1164 195.977 35.1879 196.144 35.3546C196.24 35.4499 196.311 35.569 196.383 35.7595L195.929 35.8548C195.905 35.7357 195.857 35.6643 195.762 35.5928C195.666 35.5213 195.571 35.4975 195.451 35.4975C195.284 35.4975 195.14 35.5452 195.045 35.6643C194.949 35.7833 194.901 35.9739 194.901 36.2121C194.901 36.4741 194.949 36.6885 195.045 36.7838C195.14 36.9028 195.284 36.9505 195.451 36.9505C195.571 36.9505 195.666 36.9028 195.762 36.8314C195.857 36.7837 195.929 36.6647 195.953 36.4979ZM196.837 35.1402H197.291V36.0454C197.387 36.0454 197.458 36.0215 197.506 35.9739C197.53 35.9263 197.602 35.831 197.673 35.6404C197.769 35.4022 197.864 35.2593 197.96 35.2117C198.056 35.1641 198.199 35.1164 198.414 35.1164C198.414 35.1164 198.438 35.1164 198.486 35.1164V35.4261H198.414C198.318 35.4261 198.247 35.4261 198.199 35.4499C198.151 35.4737 198.127 35.4975 198.103 35.5452C198.079 35.5928 198.032 35.6881 197.984 35.831C197.96 35.9024 197.936 35.9739 197.888 36.0215C197.864 36.0692 197.793 36.1168 197.721 36.1645C197.817 36.1883 197.912 36.2359 197.96 36.3312C198.032 36.4026 198.103 36.5217 198.175 36.6885L198.486 37.284H197.96L197.697 36.7361C197.697 36.7361 197.673 36.7123 197.673 36.6885C197.673 36.6885 197.649 36.6408 197.625 36.5932C197.578 36.4979 197.53 36.4265 197.482 36.4026C197.434 36.3788 197.387 36.355 197.315 36.355V37.3078H196.861V35.1402H196.837ZM198.677 36.2359C198.677 36.0215 198.701 35.831 198.772 35.6881C198.82 35.569 198.892 35.4737 198.988 35.4022C199.083 35.307 199.179 35.2593 199.274 35.2117C199.418 35.1641 199.585 35.1164 199.752 35.1164C200.087 35.1164 200.35 35.2117 200.541 35.4022C200.732 35.5928 200.827 35.8786 200.827 36.2121C200.827 36.5694 200.732 36.8314 200.541 37.0219C200.35 37.2125 200.087 37.3078 199.752 37.3078C199.418 37.3078 199.155 37.2125 198.964 37.0219C198.772 36.8552 198.677 36.5694 198.677 36.2359ZM199.131 36.2121C199.131 36.4503 199.179 36.6408 199.298 36.7599C199.418 36.879 199.561 36.9505 199.752 36.9505C199.943 36.9505 200.087 36.879 200.206 36.7599C200.326 36.6408 200.373 36.4503 200.373 36.1883C200.373 35.9501 200.326 35.7595 200.206 35.6404C200.087 35.5213 199.943 35.4499 199.752 35.4499C199.561 35.4499 199.418 35.5213 199.298 35.6404C199.203 35.7833 199.131 35.9739 199.131 36.2121ZM201.234 35.1402H202.118C202.285 35.1402 202.428 35.1402 202.524 35.164C202.62 35.1879 202.691 35.2117 202.763 35.2593C202.835 35.307 202.882 35.3546 202.93 35.4499C202.978 35.5213 203.002 35.6166 203.002 35.7119C203.002 35.8072 202.978 35.9024 202.906 35.9977C202.859 36.093 202.763 36.1406 202.667 36.1883C202.811 36.2359 202.906 36.2835 202.978 36.3788C203.05 36.4741 203.097 36.5694 203.097 36.7123C203.097 36.8076 203.074 36.9028 203.026 36.9981C202.978 37.0934 202.906 37.1649 202.835 37.2125C202.763 37.2601 202.643 37.3078 202.524 37.3078C202.452 37.3078 202.261 37.3316 201.974 37.3316H201.21V35.1402H201.234ZM201.688 35.4975V35.9977H201.974C202.142 35.9977 202.261 35.9977 202.309 35.9977C202.381 35.9977 202.452 35.9739 202.5 35.9263C202.548 35.8786 202.572 35.831 202.572 35.7595C202.572 35.6881 202.548 35.6404 202.524 35.5928C202.476 35.5452 202.428 35.5213 202.357 35.5213C202.309 35.5213 202.189 35.5213 201.974 35.5213H201.688V35.4975ZM201.688 36.355V36.9267H202.118C202.285 36.9267 202.381 36.9267 202.428 36.9028C202.5 36.9028 202.548 36.8552 202.596 36.8076C202.643 36.7599 202.667 36.7123 202.667 36.617C202.667 36.5456 202.643 36.4979 202.62 36.4503C202.596 36.4026 202.548 36.3788 202.476 36.355C202.405 36.3312 202.285 36.3312 202.07 36.3312H201.688V36.355ZM204.818 36.4979L205.248 36.6408C205.176 36.879 205.081 37.0458 204.913 37.1649C204.746 37.284 204.555 37.3316 204.316 37.3316C204.029 37.3316 203.767 37.2363 203.575 37.0458C203.384 36.8552 203.289 36.5932 203.289 36.2359C203.289 35.8786 203.384 35.5928 203.575 35.4022C203.767 35.2117 204.029 35.1164 204.34 35.1164C204.603 35.1164 204.842 35.1879 205.009 35.3546C205.105 35.4499 205.176 35.569 205.248 35.7595L204.794 35.8548C204.77 35.7357 204.722 35.6643 204.627 35.5928C204.531 35.5213 204.436 35.4975 204.316 35.4975C204.149 35.4975 204.005 35.5452 203.91 35.6643C203.814 35.7833 203.767 35.9739 203.767 36.2121C203.767 36.4741 203.814 36.6885 203.91 36.7838C204.005 36.9028 204.149 36.9505 204.316 36.9505C204.436 36.9505 204.531 36.9028 204.627 36.8314C204.722 36.7837 204.794 36.6647 204.818 36.4979ZM205.702 35.1402H206.156V36.0454C206.252 36.0454 206.323 36.0215 206.371 35.9739C206.395 35.9263 206.467 35.831 206.538 35.6404C206.634 35.4022 206.73 35.2593 206.825 35.2117C206.921 35.1641 207.064 35.1164 207.279 35.1164C207.279 35.1164 207.303 35.1164 207.351 35.1164V35.4261H207.279C207.184 35.4261 207.112 35.4261 207.064 35.4499C207.016 35.4737 206.992 35.4975 206.968 35.5452C206.945 35.5928 206.897 35.6881 206.849 35.831C206.825 35.9024 206.801 35.9739 206.753 36.0215C206.73 36.0692 206.658 36.1168 206.586 36.1645C206.682 36.1883 206.777 36.2359 206.825 36.3312C206.897 36.4026 206.968 36.5217 207.04 36.6885L207.351 37.284H206.825L206.562 36.7361C206.562 36.7361 206.538 36.7123 206.538 36.6885C206.538 36.6885 206.514 36.6408 206.491 36.5932C206.443 36.4979 206.395 36.4265 206.347 36.4026C206.299 36.3788 206.252 36.355 206.18 36.355V37.3078H205.702V35.1402ZM207.638 35.1402H208.068V36.5694L208.976 35.1402H209.43V37.284H209V35.9024L208.092 37.3078H207.638V35.1402ZM209.908 35.1402H210.338V36.5694L211.246 35.1402H211.7V37.284H211.27V35.9024L210.362 37.3078H209.908V35.1402ZM211.078 34.6162H211.293C211.27 34.7591 211.222 34.8544 211.15 34.9259C211.055 34.9973 210.959 35.045 210.816 35.045C210.672 35.045 210.577 34.9973 210.481 34.9259C210.385 34.8544 210.338 34.7353 210.338 34.6162H210.553C210.553 34.6877 210.577 34.7353 210.624 34.7829C210.672 34.8068 210.72 34.8306 210.816 34.8306C210.887 34.8306 210.959 34.8068 211.007 34.7829C211.055 34.7591 211.078 34.6877 211.078 34.6162ZM213.444 35.1402H214.949V35.4975H213.874V37.284H213.42V35.1402H213.444ZM215.093 36.2359C215.093 36.0215 215.117 35.831 215.188 35.6881C215.236 35.569 215.308 35.4737 215.403 35.4022C215.499 35.307 215.595 35.2593 215.69 35.2117C215.834 35.1641 216.001 35.1164 216.168 35.1164C216.503 35.1164 216.765 35.2117 216.957 35.4022C217.148 35.5928 217.243 35.8786 217.243 36.2121C217.243 36.5694 217.148 36.8314 216.957 37.0219C216.765 37.2125 216.503 37.3078 216.168 37.3078C215.834 37.3078 215.571 37.2125 215.38 37.0219C215.188 36.8552 215.093 36.5694 215.093 36.2359ZM215.571 36.2121C215.571 36.4503 215.618 36.6408 215.738 36.7599C215.857 36.879 216.001 36.9505 216.192 36.9505C216.383 36.9505 216.527 36.879 216.646 36.7599C216.765 36.6408 216.813 36.4503 216.813 36.1883C216.813 35.9501 216.765 35.7595 216.646 35.6404C216.527 35.5213 216.383 35.4499 216.192 35.4499C216.001 35.4499 215.857 35.5213 215.738 35.6404C215.618 35.7833 215.571 35.9739 215.571 36.2121ZM219.083 36.4979L219.513 36.6408C219.442 36.879 219.346 37.0458 219.179 37.1649C219.012 37.284 218.82 37.3316 218.581 37.3316C218.295 37.3316 218.032 37.2363 217.841 37.0458C217.65 36.8552 217.554 36.5932 217.554 36.2359C217.554 35.8786 217.65 35.5928 217.841 35.4022C218.032 35.2117 218.295 35.1164 218.605 35.1164C218.868 35.1164 219.107 35.1879 219.274 35.3546C219.37 35.4499 219.442 35.569 219.513 35.7595L219.059 35.8548C219.035 35.7357 218.988 35.6643 218.892 35.5928C218.797 35.5213 218.701 35.4975 218.581 35.4975C218.414 35.4975 218.271 35.5452 218.175 35.6643C218.08 35.7833 218.032 35.9739 218.032 36.2121C218.032 36.4741 218.08 36.6885 218.175 36.7838C218.271 36.9028 218.414 36.9505 218.581 36.9505C218.701 36.9505 218.797 36.9028 218.892 36.8314C218.988 36.7837 219.059 36.6647 219.083 36.4979ZM219.681 35.1402H220.182L220.708 36.2597L221.162 35.1402H221.64L220.875 36.7838C220.804 36.9505 220.708 37.0934 220.613 37.1887C220.517 37.284 220.421 37.3316 220.278 37.3316C220.135 37.3316 220.039 37.3316 219.967 37.3078V36.9743C220.039 36.9743 220.087 36.9743 220.135 36.9743C220.23 36.9743 220.326 36.9505 220.35 36.9267C220.398 36.879 220.445 36.8076 220.469 36.6885L219.681 35.1402ZM221.903 35.1402H223.456V36.9267H223.647V37.7603H223.265V37.284H221.855V37.7603H221.473V36.9267H221.664C221.76 36.7361 221.807 36.5217 221.855 36.2836C221.879 36.0454 221.903 35.7357 221.903 35.3546V35.1402ZM222.333 35.4975C222.333 36.1406 222.261 36.617 222.142 36.9267H223.002V35.4975H222.333ZM226.061 37.3078H225.559L225.368 36.8076H224.484L224.292 37.3078H223.815L224.699 35.164H225.177L226.061 37.3078ZM225.248 36.4503L224.938 35.6404L224.627 36.4503H225.248ZM226.347 37.3078V35.164H227.064C227.351 35.164 227.518 35.164 227.59 35.1879C227.709 35.2117 227.829 35.2831 227.901 35.4022C227.996 35.5213 228.02 35.6404 228.02 35.831C228.02 35.9739 227.996 36.0692 227.948 36.1645C227.901 36.2597 227.829 36.3312 227.757 36.3788C227.686 36.4265 227.59 36.4741 227.518 36.4741C227.399 36.4979 227.255 36.4979 227.04 36.4979H226.754V37.3078H226.347ZM226.801 35.4975V36.1168H227.04C227.208 36.1168 227.327 36.1168 227.399 36.093C227.47 36.0692 227.494 36.0454 227.542 35.9977C227.566 35.9501 227.59 35.9024 227.59 35.831C227.59 35.7595 227.566 35.6881 227.518 35.6404C227.47 35.5928 227.399 35.569 227.327 35.5452C227.279 35.5452 227.16 35.5213 226.993 35.5213H226.801V35.4975ZM229.812 36.4979L230.242 36.6408C230.171 36.879 230.075 37.0458 229.908 37.1649C229.74 37.284 229.549 37.3316 229.31 37.3316C229.024 37.3316 228.761 37.2363 228.57 37.0458C228.378 36.8552 228.283 36.5932 228.283 36.2359C228.283 35.8786 228.378 35.5928 228.57 35.4022C228.761 35.2117 229.024 35.1164 229.334 35.1164C229.597 35.1164 229.836 35.1879 230.003 35.3546C230.099 35.4499 230.171 35.569 230.242 35.7595L229.788 35.8548C229.764 35.7357 229.717 35.6643 229.621 35.5928C229.525 35.5213 229.43 35.4975 229.31 35.4975C229.143 35.4975 229 35.5452 228.904 35.6643C228.809 35.7833 228.761 35.9739 228.761 36.2121C228.761 36.4741 228.809 36.6885 228.904 36.7838C229 36.9028 229.143 36.9505 229.31 36.9505C229.43 36.9505 229.525 36.9028 229.621 36.8314C229.717 36.7837 229.764 36.6647 229.812 36.4979ZM231.103 37.3078V35.5213H230.433V35.164H232.202V35.5213H231.533V37.3078H231.103ZM232.536 35.1402H233.42C233.588 35.1402 233.731 35.1402 233.827 35.164C233.922 35.1879 233.994 35.2117 234.066 35.2593C234.137 35.307 234.185 35.3546 234.233 35.4499C234.281 35.5213 234.304 35.6166 234.304 35.7119C234.304 35.8072 234.281 35.9024 234.209 35.9977C234.161 36.093 234.065 36.1406 233.97 36.1883C234.113 36.2359 234.209 36.2835 234.281 36.3788C234.352 36.4741 234.4 36.5694 234.4 36.7123C234.4 36.8076 234.376 36.9028 234.328 36.9981C234.281 37.0934 234.209 37.1649 234.137 37.2125C234.065 37.2601 233.946 37.3078 233.827 37.3078C233.755 37.3078 233.564 37.3316 233.277 37.3316H232.512V35.1402H232.536ZM232.99 35.4975V35.9977H233.277C233.444 35.9977 233.564 35.9977 233.611 35.9977C233.683 35.9977 233.755 35.9739 233.803 35.9263C233.85 35.8786 233.874 35.831 233.874 35.7595C233.874 35.6881 233.85 35.6404 233.827 35.5928C233.779 35.5452 233.731 35.5213 233.659 35.5213C233.611 35.5213 233.492 35.5213 233.277 35.5213H232.99V35.4975ZM232.99 36.355V36.9267H233.42C233.588 36.9267 233.683 36.9267 233.731 36.9028C233.803 36.9028 233.85 36.8552 233.898 36.8076C233.946 36.7599 233.97 36.7123 233.97 36.617C233.97 36.5456 233.946 36.4979 233.922 36.4503C233.898 36.4026 233.85 36.3788 233.779 36.355C233.707 36.3312 233.588 36.3312 233.373 36.3312H232.99V36.355ZM234.83 37.3078V35.164H236.479V35.5213H235.26V35.9977H236.383V36.355H235.26V36.9505H236.503V37.3078H234.83ZM236.933 37.3078V35.164H237.387V36.0215H238.271V35.164H238.725V37.3078H238.271V36.355H237.387V37.3078H236.933ZM239.227 37.3078V35.164H239.681V36.0215H240.565V35.164H241.019V37.3078H240.565V36.355H239.681V37.3078H239.227ZM241.545 35.1402H241.999V35.9977H242.596C242.763 35.9977 242.883 36.0215 243.002 36.0692C243.122 36.1168 243.217 36.1883 243.289 36.2836C243.361 36.3788 243.408 36.5217 243.408 36.6647C243.408 36.8076 243.361 36.9267 243.289 37.0458C243.217 37.141 243.122 37.2125 243.026 37.2601C242.931 37.284 242.787 37.3078 242.596 37.3078H241.545V35.1402ZM241.999 36.9267H242.429C242.572 36.9267 242.668 36.9267 242.716 36.9028C242.763 36.879 242.811 36.8552 242.859 36.8076C242.907 36.7599 242.931 36.7123 242.931 36.6408C242.931 36.5456 242.907 36.4741 242.835 36.4265C242.763 36.3788 242.644 36.355 242.453 36.355H241.999V36.9267ZM243.671 35.1402H244.125V37.284H243.671V35.1402ZM244.627 35.1402H245.057V36.5694L245.965 35.1402H246.419V37.284H245.989V35.9024L245.081 37.3078H244.627V35.1402ZM245.774 34.6162H245.989C245.965 34.7591 245.917 34.8544 245.846 34.9259C245.774 34.9973 245.655 35.045 245.511 35.045C245.368 35.045 245.272 34.9973 245.177 34.9259C245.081 34.8544 245.033 34.7353 245.033 34.6162H245.248C245.248 34.6877 245.272 34.7353 245.32 34.7829C245.368 34.8306 245.416 34.8306 245.511 34.8306C245.583 34.8306 245.655 34.8068 245.702 34.7829C245.75 34.7591 245.774 34.6877 245.774 34.6162ZM189.931 40.3804V38.594H189.262V38.2367H191.03V38.594H190.361V40.3804H189.931ZM191.365 40.3804V38.2367H193.014V38.594H191.795V39.0704H192.918V39.4277H191.795V40.0232H193.038V40.3804H191.365ZM193.253 40.3804L194.017 39.2609L193.324 38.2367H193.85L194.304 38.9275L194.734 38.2367H195.26L194.567 39.2848L195.332 40.3804H194.782L194.28 39.642L193.778 40.3804H193.253ZM195.618 40.3804V38.2367H196.072V39.0942H196.956V38.2367H197.41V40.3804H196.956V39.4277H196.072V40.3804H195.618ZM197.817 39.3324C197.817 39.118 197.841 38.9275 197.912 38.7846C197.96 38.6655 198.032 38.5702 198.127 38.4987C198.223 38.4035 198.318 38.3558 198.414 38.3082C198.557 38.2605 198.725 38.2129 198.892 38.2129C199.226 38.2129 199.489 38.3082 199.68 38.4987C199.872 38.6893 199.967 38.9751 199.967 39.3086C199.967 39.6659 199.872 39.9279 199.68 40.1184C199.489 40.309 199.226 40.4043 198.892 40.4043C198.557 40.4043 198.295 40.309 198.103 40.1184C197.912 39.9517 197.817 39.6659 197.817 39.3324ZM198.271 39.3086C198.271 39.5468 198.318 39.7373 198.438 39.8564C198.557 39.9755 198.701 40.047 198.892 40.047C199.083 40.047 199.226 39.9755 199.346 39.8564C199.465 39.7373 199.513 39.5468 199.513 39.2848C199.513 39.0466 199.465 38.856 199.346 38.7369C199.226 38.6178 199.083 38.5464 198.892 38.5464C198.701 38.5464 198.557 38.6178 198.438 38.7369C198.318 38.8798 198.271 39.0704 198.271 39.3086ZM200.445 38.2367H202.022V40.3804H201.568V38.594H200.899V39.523C200.899 39.785 200.899 39.9755 200.875 40.0708C200.851 40.1661 200.804 40.2613 200.732 40.309C200.66 40.3566 200.541 40.4043 200.397 40.4043C200.35 40.4043 200.254 40.4043 200.111 40.3804V40.047H200.206C200.302 40.047 200.373 40.0232 200.397 39.9993C200.421 39.9755 200.445 39.9041 200.445 39.8088V39.4277V38.2367ZM202.428 39.3324C202.428 39.118 202.452 38.9275 202.524 38.7846C202.572 38.6655 202.643 38.5702 202.739 38.4987C202.835 38.4035 202.93 38.3558 203.026 38.3082C203.169 38.2605 203.336 38.2129 203.504 38.2129C203.838 38.2129 204.101 38.3082 204.292 38.4987C204.483 38.6893 204.579 38.9751 204.579 39.3086C204.579 39.6659 204.483 39.9279 204.292 40.1184C204.101 40.309 203.838 40.4043 203.504 40.4043C203.169 40.4043 202.906 40.309 202.715 40.1184C202.524 39.9517 202.428 39.6659 202.428 39.3324ZM202.882 39.3086C202.882 39.5468 202.93 39.7373 203.05 39.8564C203.169 39.9755 203.313 40.047 203.504 40.047C203.695 40.047 203.838 39.9755 203.958 39.8564C204.077 39.7373 204.125 39.5468 204.125 39.2848C204.125 39.0466 204.077 38.856 203.958 38.7369C203.838 38.6178 203.695 38.5464 203.504 38.5464C203.313 38.5464 203.169 38.6178 203.05 38.7369C202.93 38.8798 202.882 39.0704 202.882 39.3086ZM204.985 38.2367H206.491V38.594H205.415V40.3804H204.985V38.2367ZM206.777 38.2367H207.207V39.6659L208.115 38.2367H208.569V40.3804H208.139V38.9751L207.231 40.3804H206.777V38.2367ZM209.023 38.2367H209.477V38.7607C209.477 38.9275 209.477 39.0466 209.501 39.0942C209.525 39.1418 209.549 39.1895 209.621 39.2371C209.693 39.2848 209.788 39.3086 209.908 39.3086C210.003 39.3086 210.099 39.3086 210.17 39.2848C210.242 39.2609 210.314 39.2371 210.362 39.1895V38.2605H210.816V40.4043H210.362V39.5468C210.266 39.5944 210.17 39.6182 210.099 39.642C210.003 39.6659 209.931 39.6659 209.836 39.6659C209.621 39.6659 209.43 39.6182 209.286 39.523C209.143 39.4277 209.071 39.2371 209.071 38.9989V38.2367H209.023ZM211.293 40.3804V38.2367H212.942V38.594H211.724V39.0704H212.847V39.4277H211.724V40.0232H212.966V40.3804H211.293ZM214.83 39.5944L215.26 39.7373C215.188 39.9755 215.093 40.1423 214.926 40.2613C214.758 40.3804 214.567 40.4281 214.328 40.4281C214.041 40.4281 213.779 40.3328 213.587 40.1423C213.396 39.9517 213.301 39.6897 213.301 39.3324C213.301 38.9751 213.396 38.6893 213.587 38.4987C213.779 38.3082 214.041 38.2129 214.352 38.2129C214.615 38.2129 214.854 38.2844 215.021 38.4511C215.117 38.5464 215.188 38.6655 215.26 38.856L214.806 38.9513C214.782 38.8322 214.734 38.7607 214.639 38.6893C214.543 38.6178 214.448 38.594 214.328 38.594C214.161 38.594 214.018 38.6416 213.922 38.7607C213.826 38.8798 213.779 39.0704 213.779 39.3086C213.779 39.5706 213.826 39.785 213.922 39.8802C214.018 39.9993 214.161 40.047 214.328 40.047C214.448 40.047 214.543 39.9993 214.639 39.9279C214.734 39.8802 214.806 39.7611 214.83 39.5944ZM215.714 38.2367H216.168V39.1418C216.264 39.1418 216.335 39.118 216.383 39.0704C216.407 39.0228 216.479 38.9275 216.55 38.7369C216.646 38.4987 216.742 38.3558 216.837 38.3082C216.933 38.2605 217.076 38.2129 217.291 38.2129C217.291 38.2129 217.315 38.2129 217.363 38.2129V38.5225H217.291C217.196 38.5225 217.124 38.5225 217.1 38.5464C217.052 38.5702 217.028 38.594 217.004 38.6416C216.981 38.6893 216.933 38.7846 216.885 38.9275C216.861 38.9989 216.837 39.0704 216.789 39.118C216.765 39.1657 216.694 39.2133 216.622 39.2609C216.718 39.2848 216.813 39.3324 216.861 39.4277C216.909 39.523 217.004 39.6182 217.076 39.785L217.387 40.3804H216.861L216.598 39.8326C216.598 39.8326 216.574 39.8088 216.574 39.785C216.574 39.785 216.55 39.7373 216.527 39.6897C216.479 39.5944 216.431 39.523 216.383 39.4991C216.335 39.4753 216.288 39.4515 216.216 39.4515V40.4043H215.762V38.2367H215.714ZM217.65 38.2367H218.08V39.6659L218.988 38.2367H219.442V40.3804H219.012V38.9751L218.104 40.3804H217.65V38.2367ZM219.92 38.2367H220.35V39.6659L221.258 38.2367H221.712V40.3804H221.282V38.9751L220.374 40.3804H219.92V38.2367ZM221.09 37.7127H221.306C221.282 37.8556 221.234 37.9509 221.162 38.0223C221.09 38.0938 220.971 38.1414 220.828 38.1414C220.684 38.1414 220.589 38.0938 220.493 38.0223C220.398 37.9509 220.35 37.8318 220.35 37.7127H220.565C220.565 37.7842 220.589 37.8318 220.636 37.8794C220.684 37.9033 220.732 37.9271 220.828 37.9271C220.899 37.9271 220.971 37.9033 221.019 37.8794C221.043 37.8318 221.067 37.7603 221.09 37.7127ZM222.978 38.2367H223.48L224.006 39.3562L224.46 38.2367H224.938L224.173 39.8802C224.101 40.047 224.006 40.1899 223.91 40.2852C223.815 40.3804 223.719 40.4281 223.576 40.4281C223.432 40.4281 223.337 40.4281 223.265 40.4043V40.0708C223.337 40.0708 223.384 40.0708 223.432 40.0708C223.528 40.0708 223.623 40.047 223.647 40.0232C223.695 39.9755 223.743 39.9041 223.767 39.785L222.978 38.2367ZM225.177 40.3804V38.2367H225.631V39.0942H226.515V38.2367H226.969V40.3804H226.515V39.4277H225.631V40.3804H225.177ZM227.47 38.2367H227.901V39.6659L228.809 38.2367H229.263V40.3804H228.832V38.9751L227.924 40.3804H227.47V38.2367ZM229.764 38.2367H230.648C230.816 38.2367 230.959 38.2367 231.055 38.2605C231.15 38.2844 231.222 38.3082 231.294 38.3558C231.365 38.4035 231.413 38.4511 231.461 38.5464C231.509 38.6178 231.533 38.7131 231.533 38.8084C231.533 38.9037 231.509 38.9989 231.437 39.0942C231.365 39.1895 231.294 39.2371 231.198 39.2848C231.341 39.3324 231.437 39.38 231.509 39.4753C231.58 39.5706 231.628 39.6659 231.628 39.8088C231.628 39.9041 231.604 39.9993 231.557 40.0946C231.509 40.1899 231.437 40.2613 231.365 40.309C231.294 40.3566 231.174 40.4043 231.055 40.4043C230.983 40.4043 230.792 40.4281 230.505 40.4281H229.74V38.2367H229.764ZM230.194 38.594V39.0942H230.481C230.649 39.0942 230.768 39.0942 230.816 39.0942C230.887 39.0942 230.959 39.0704 231.007 39.0228C231.055 38.9751 231.079 38.9275 231.079 38.856C231.079 38.7846 231.055 38.7369 231.031 38.6893C230.983 38.6416 230.935 38.6178 230.864 38.6178C230.816 38.6178 230.696 38.6178 230.481 38.6178H230.194V38.594ZM230.194 39.4515V40.0232H230.625C230.792 40.0232 230.887 40.0232 230.935 39.9993C231.007 39.9993 231.055 39.9517 231.103 39.9041C231.15 39.8564 231.174 39.8088 231.174 39.7135C231.174 39.642 231.15 39.5944 231.126 39.5468C231.103 39.4991 231.055 39.4753 230.983 39.4515C230.911 39.4277 230.792 39.4277 230.577 39.4277H230.194V39.4515ZM232.034 40.3804V38.2367H233.683V38.594H232.465V39.0704H233.588V39.4277H232.465V40.0232H233.707V40.3804H232.034ZM234.161 40.3804V38.2367H234.878C235.165 38.2367 235.332 38.2367 235.404 38.2605C235.523 38.2844 235.643 38.3558 235.714 38.4749C235.81 38.594 235.834 38.7131 235.834 38.9037C235.834 39.0466 235.81 39.1418 235.762 39.2371C235.714 39.3324 235.643 39.4039 235.571 39.4515C235.499 39.4991 235.404 39.5468 235.332 39.5468C235.212 39.5706 235.069 39.5706 234.854 39.5706H234.615V40.3804H234.161ZM234.615 38.594V39.2133H234.854C235.021 39.2133 235.141 39.2133 235.212 39.1895C235.284 39.1657 235.308 39.1418 235.356 39.0942C235.38 39.0466 235.404 38.9989 235.404 38.9275C235.404 38.856 235.38 38.7846 235.332 38.7369C235.284 38.6893 235.212 38.6655 235.141 38.6416C235.093 38.6416 234.974 38.6178 234.806 38.6178H234.615V38.594ZM237.626 39.5944L238.056 39.7373C237.984 39.9755 237.889 40.1423 237.721 40.2613C237.554 40.3804 237.363 40.4281 237.124 40.4281C236.837 40.4281 236.574 40.3328 236.383 40.1423C236.192 39.9517 236.097 39.6897 236.097 39.3324C236.097 38.9751 236.192 38.6893 236.383 38.4987C236.574 38.3082 236.837 38.2129 237.148 38.2129C237.411 38.2129 237.65 38.2844 237.817 38.4511C237.913 38.5464 237.984 38.6655 238.056 38.856L237.602 38.9513C237.578 38.8322 237.53 38.7607 237.435 38.6893C237.339 38.6178 237.244 38.594 237.124 38.594C236.957 38.594 236.813 38.6416 236.718 38.7607C236.622 38.8798 236.574 39.0704 236.574 39.3086C236.574 39.5706 236.622 39.785 236.718 39.8802C236.813 39.9993 236.957 40.047 237.124 40.047C237.244 40.047 237.339 39.9993 237.435 39.9279C237.53 39.8802 237.602 39.7611 237.626 39.5944ZM238.486 38.2367H238.916V39.6659L239.824 38.2367H240.278V40.3804H239.848V38.9751L238.94 40.3804H238.486V38.2367ZM241.282 40.3804V38.594H240.613V38.2367H242.381V38.594H241.712V40.3804H241.282ZM242.716 40.3804V38.2367H244.364V38.594H243.146V39.0704H244.269V39.4277H243.146V40.0232H244.388V40.3804H242.716ZM245.344 40.3804V38.594H244.675V38.2367H246.443V38.594H245.774V40.3804H245.344Z" fill="white"/>
<path fill-rule="evenodd" clip-rule="evenodd" d="M214.758 7.22415L209.478 8.22456C207.112 7.46235 204.722 7.48616 202.357 8.034V22.8495H201.377V7.48616H196.335V22.8257H194.304V8.89149L187.924 3.60364V40.428H184.459L184.555 10.7494L178.964 9.24878V40.3328H175.594L175.499 19.9198C170.17 23.8499 165.941 29.4474 164.364 34.4971C163.073 38.5701 164.101 43.4054 167.398 44.9775C172.321 47.3118 179.872 46.3828 186.729 44.5249C189.907 43.6674 193.85 41.619 194.997 40.9997H198.94C197.697 41.7381 190.409 45.9303 180.756 47.1927C174.4 48.0025 167.112 47.2403 164.196 43.2149C159.059 36.1406 166.729 24.1834 175.475 17.5617V8.79622L178.94 7.12888L184.34 8.79622L187.972 0.578613L194.185 5.53299L194.352 7.84345L196.311 5.69973C202.452 5.10425 208.546 4.77078 214.567 6.31903L214.758 7.22415ZM207.638 33.9492V32.5677H207.231C206.682 33.0441 206.108 33.5205 205.463 34.0207C205.224 34.2112 204.985 34.4018 204.746 34.5923H208.57C208.808 34.378 209.047 34.1636 209.286 33.9492H207.638ZM220.35 13.4171L217.124 11.5592L216.407 11.9642C216.407 11.9642 218.414 14.3937 216.837 19.5148C216.144 21.7538 214.734 23.6594 214.734 23.6594V27.1846H215.69C215.929 26.9226 216.407 26.2556 216.55 25.9698V23.8023H218.104C218.104 23.8023 219.131 22.3731 219.944 19.0384C220.589 16.2516 220.35 13.4171 220.35 13.4171Z" fill="white"/>
</g>
<defs>
<clipPath id="clip0_3611_15000">
<rect width="84" height="47" fill="white" transform="translate(162.503 0.5)"/>
</clipPath>
</defs>
</svg>
