<svg width="28" height="24" viewBox="0 0 28 24" fill="none" xmlns="http://www.w3.org/2000/svg">
<path d="M14.0198 17.3333C12.8994 17.3333 11.7658 17.0912 10.8827 16.618L2.94767 12.2933C1.47139 11.49 0.588257 10.1364 0.588257 8.66185C0.588257 7.18726 1.47139 5.83372 2.94767 5.0304L10.8959 0.716668C12.6621 -0.240716 15.417 -0.240716 17.1701 0.727672L25.0655 5.05241C26.5286 5.85573 27.4118 7.20927 27.4118 8.67286C27.4118 10.1364 26.5286 11.49 25.0655 12.2933L17.1701 16.618C16.2869 17.1022 15.1534 17.3333 14.0198 17.3333ZM14.0198 1.65204C13.2685 1.65204 12.5171 1.7951 11.9767 2.10322L4.0417 6.41695C3.11903 6.92316 2.5786 7.73748 2.5786 8.66185C2.5786 9.58622 3.10584 10.4005 4.0417 10.9068L11.9767 15.2315C13.0707 15.8257 14.9952 15.8257 16.0892 15.2315L23.9847 10.9068C24.9074 10.4005 25.4346 9.58622 25.4346 8.66185C25.4346 7.73748 24.9074 6.92316 23.9847 6.41695L16.0892 2.09222C15.5356 1.8061 14.7843 1.65204 14.0198 1.65204Z" fill="white"/>
<path d="M14.0001 24.0001C13.4158 24.0001 12.8183 23.9348 12.3403 23.8043L8.10471 22.6514C6.09976 22.1076 4.5197 20.3129 4.53298 18.5836L4.54626 13.4825C4.54626 13.0365 4.9977 12.6667 5.5421 12.6667C6.08649 12.6667 6.53793 13.0365 6.53793 13.4825L6.52465 18.5836C6.52465 19.606 7.56032 20.7806 8.74205 21.1069L12.9777 22.2598C13.5088 22.4012 14.4913 22.4012 15.0225 22.2598L19.2581 21.1069C20.4398 20.7806 21.4755 19.606 21.4755 18.5944V13.5477C21.4755 13.1018 21.9269 12.732 22.4713 12.732C23.0157 12.732 23.4671 13.1018 23.4671 13.5477V18.5944C23.4671 20.3238 21.9004 22.1076 19.8954 22.6623L15.6598 23.8152C15.1818 23.9348 14.5843 24.0001 14.0001 24.0001Z" fill="white"/>
<path d="M26.6228 16C26.1915 16 25.8339 15.6373 25.8339 15.2V8.8C25.8339 8.36267 26.1915 8 26.6228 8C27.0541 8 27.4117 8.36267 27.4117 8.8V15.2C27.4117 15.6373 27.0541 16 26.6228 16Z" fill="white"/>
</svg>
