<svg width="21" height="25" viewBox="0 0 21 25" fill="none" xmlns="http://www.w3.org/2000/svg">
<g clip-path="url(#clip0_3664_758)">
<path d="M21 10.3391C18.9356 10.3435 16.922 9.69907 15.2438 8.49688V16.8781C15.2433 18.4304 14.7689 19.9455 13.884 21.2208C12.9991 22.4961 11.7459 23.4708 10.292 24.0146C8.83813 24.5584 7.25287 24.6453 5.74825 24.2638C4.24363 23.8822 2.89139 23.0503 1.87237 21.8794C0.853351 20.7084 0.216138 19.2543 0.0459537 17.7114C-0.12423 16.1685 0.180728 14.6104 0.920044 13.2456C1.65936 11.8807 2.79778 10.7741 4.18306 10.0737C5.56834 9.3734 7.13443 9.11272 8.67188 9.32656V13.5406C7.96888 13.3193 7.21393 13.3258 6.51483 13.5591C5.81573 13.7925 5.20822 14.2407 4.77905 14.8399C4.34988 15.439 4.12099 16.1585 4.12506 16.8955C4.12913 17.6325 4.36596 18.3493 4.80173 18.9437C5.2375 19.5381 5.84993 19.9796 6.55157 20.2052C7.25321 20.4308 8.00818 20.4289 8.70869 20.1998C9.4092 19.9708 10.0194 19.5262 10.4523 18.9297C10.8851 18.3332 11.1183 17.6151 11.1188 16.8781V0.5H15.2438C15.2414 0.848874 15.2712 1.19722 15.3328 1.54063C15.4763 2.30609 15.7743 3.03427 16.2087 3.68065C16.6431 4.32703 17.2048 4.87804 17.8594 5.3C18.7911 5.91539 19.8834 6.24306 21 6.24219V10.3391Z" fill="white"/>
</g>
<defs>
<clipPath id="clip0_3664_758">
<rect width="21" height="24" fill="white" transform="translate(0 0.5)"/>
</clipPath>
</defs>
</svg>
