<svg width="22" height="25" viewBox="0 0 22 25" fill="none" xmlns="http://www.w3.org/2000/svg">
<g clip-path="url(#clip0_3664_754)">
<path d="M2.22656 3.47656C0.75 4.95312 0.75 7.32969 0.75 12.0781V12.9219C0.75 17.6703 0.75 20.0469 2.22656 21.5234C3.70312 23 6.07969 23 10.8281 23H11.6719C16.4203 23 18.7969 23 20.2734 21.5234C21.75 20.0469 21.75 17.6703 21.75 12.9219V12.0781C21.75 7.32969 21.75 4.95312 20.2734 3.47656C18.7969 2 16.4203 2 11.6719 2H10.8281C6.07969 2 3.70312 2 2.22656 3.47656ZM4.29375 8.38906H6.68906C6.76875 12.3969 8.53594 14.0937 9.9375 14.4406V8.38906H12.1969V11.8438C13.5797 11.6937 15.0281 10.1188 15.5203 8.38906H17.7797C17.5922 9.28438 17.2266 10.1375 16.6969 10.8875C16.1672 11.6375 15.4922 12.2703 14.7047 12.7438C15.5813 13.1797 16.3547 13.7937 16.9734 14.5531C17.5969 15.3078 18.0469 16.1844 18.3047 17.1266H15.8156C15.5906 16.3109 15.1219 15.575 14.4797 15.0219C13.8328 14.4641 13.0406 14.1125 12.1969 14.0047V17.1266H11.925C7.13906 17.1266 4.40625 13.8453 4.29375 8.38906Z" fill="white"/>
</g>
<defs>
<clipPath id="clip0_3664_754">
<rect width="21" height="24" fill="white" transform="translate(0.75 0.5)"/>
</clipPath>
</defs>
</svg>
