<svg width="54" height="54" viewBox="0 0 54 54" fill="none" xmlns="http://www.w3.org/2000/svg">
<path fill-rule="evenodd" clip-rule="evenodd" d="M19.2545 0.889648H35.5248C50.3738 0.889648 53.8896 4.40553 53.8896 19.2545V35.5248C53.8896 50.3738 50.3738 53.8896 35.5248 53.8896H19.2545C4.40553 53.8896 0.889648 50.3738 0.889648 35.5248V19.2545C0.889648 4.40553 4.40553 0.889648 19.2545 0.889648Z" fill="#4680C2"/>
<path fill-rule="evenodd" clip-rule="evenodd" d="M44.277 19.1422C44.5389 18.3193 44.277 17.7209 43.1175 17.7209H39.265C38.2926 17.7209 37.8437 18.2445 37.5819 18.8056C37.5819 18.8056 35.5995 23.5931 32.8317 26.6976C31.9341 27.5953 31.5226 27.8945 31.0364 27.8945C30.7746 27.8945 30.4379 27.5953 30.4379 26.7724V19.1048C30.4379 18.1323 30.1387 17.6835 29.3158 17.6835H23.2566C22.6581 17.6835 22.2841 18.1323 22.2841 18.5811C22.2841 19.5162 23.668 19.7406 23.8176 22.3588V28.0441C23.8176 29.2784 23.5932 29.5028 23.107 29.5028C21.7979 29.5028 18.6186 24.6778 16.7111 19.1796C16.337 18.0949 15.963 17.6835 14.9905 17.6835H11.1006C9.97852 17.6835 9.7915 18.2071 9.7915 18.7682C9.7915 19.778 11.1006 24.8648 15.8882 31.5974C19.0674 36.1979 23.5932 38.6665 27.6701 38.6665C30.1387 38.6665 30.4379 38.1055 30.4379 37.1704V33.6919C30.4379 32.5699 30.6624 32.3828 31.4478 32.3828C32.0089 32.3828 33.0187 32.6821 35.3003 34.8888C37.9185 37.507 38.3674 38.7039 39.8261 38.7039H43.6786C44.8007 38.7039 45.3243 38.1429 45.0251 37.0582C44.6885 35.9735 43.4168 34.4026 41.771 32.5324C40.8734 31.4852 39.5269 30.3257 39.1154 29.7646C38.5544 29.0166 38.704 28.7173 39.1154 28.0441C39.078 28.0441 43.7908 21.3864 44.277 19.1422Z" fill="white"/>
</svg>
