<svg width="20" height="20" viewBox="0 0 20 20" fill="none" xmlns="http://www.w3.org/2000/svg">
<g clip-path="url(#clip0_3668_15127)">
<path d="M6.57143 3C5.15179 3 4 4.17578 4 5.625V14.375C4 15.8242 5.15179 17 6.57143 17H14.2857H15.1429C15.617 17 16 16.609 16 16.125C16 15.641 15.617 15.25 15.1429 15.25V13.5C15.617 13.5 16 13.109 16 12.625V3.875C16 3.39102 15.617 3 15.1429 3H14.2857H6.57143ZM6.57143 13.5H13.4286V15.25H6.57143C6.09732 15.25 5.71429 14.859 5.71429 14.375C5.71429 13.891 6.09732 13.5 6.57143 13.5ZM7.42857 6.9375C7.42857 6.69688 7.62143 6.5 7.85714 6.5H13C13.2357 6.5 13.4286 6.69688 13.4286 6.9375C13.4286 7.17812 13.2357 7.375 13 7.375H7.85714C7.62143 7.375 7.42857 7.17812 7.42857 6.9375ZM7.85714 8.25H13C13.2357 8.25 13.4286 8.44688 13.4286 8.6875C13.4286 8.92812 13.2357 9.125 13 9.125H7.85714C7.62143 9.125 7.42857 8.92812 7.42857 8.6875C7.42857 8.44688 7.62143 8.25 7.85714 8.25Z" fill="#666A70"/>
</g>
<defs>
<clipPath id="clip0_3668_15127">
<rect width="12" height="14" fill="white" transform="translate(4 3)"/>
</clipPath>
</defs>
</svg>
