<svg width="20" height="20" viewBox="0 0 20 20" fill="none" xmlns="http://www.w3.org/2000/svg">
<path d="M4.02935 5.1987C4.09794 5.06159 4.24884 4.98292 4.40202 5.00315L9.99903 5.69096L15.596 5.00315C15.7492 4.98517 15.9001 5.06384 15.9687 5.1987L16.9221 7.07332C17.1279 7.47567 16.9084 7.96343 16.4694 8.08706L12.7335 9.13675C12.4157 9.22666 12.075 9.09405 11.9058 8.81533L9.99903 5.69096L8.0922 8.81533C7.92301 9.09405 7.58235 9.22666 7.26454 9.13675L3.53092 8.08706C3.08965 7.96343 2.87245 7.47567 3.07822 7.07332L4.02935 5.1987ZM10.0242 7.12952L11.2794 9.18396C11.6201 9.7414 12.2991 10.0066 12.937 9.82681L15.8521 9.00863V12.7624C15.8521 13.2569 15.5091 13.6884 15.0199 13.8098L10.3534 14.9562C10.1202 15.0146 9.87556 15.0146 9.64464 14.9562L4.97818 13.8098C4.4889 13.6862 4.14595 13.2546 4.14595 12.7601V9.00638L7.06334 9.82681C7.69895 10.0066 8.38029 9.7414 8.72095 9.18396L9.97388 7.12952H10.0242Z" fill="#666A70" fill-opacity="0.9"/>
</svg>
