<svg width="20" height="20" viewBox="0 0 20 20" fill="none" xmlns="http://www.w3.org/2000/svg">
<g clip-path="url(#clip0_3807_686)">
<path d="M16.7436 10.7063C17.0855 10.3156 17.0855 9.68125 16.7436 9.29063L13.2435 5.29063C12.9017 4.9 12.3465 4.9 12.0047 5.29063C11.6629 5.68125 11.6629 6.31563 12.0047 6.70625L14.0119 9H8.25026C7.76625 9 7.37521 9.44688 7.37521 10C7.37521 10.5531 7.76625 11 8.25026 11H14.0119L12.0047 13.2937C11.6629 13.6844 11.6629 14.3188 12.0047 14.7094C12.3465 15.1 12.9017 15.1 13.2435 14.7094L16.7436 10.7094V10.7063ZM7.37521 5C7.85922 5 8.25026 4.55313 8.25026 4C8.25026 3.44687 7.85922 3 7.37521 3H5.62513C4.17584 3 3 4.34375 3 6V14C3 15.6562 4.17584 17 5.62513 17H7.37521C7.85922 17 8.25026 16.5531 8.25026 16C8.25026 15.4469 7.85922 15 7.37521 15H5.62513C5.14112 15 4.75009 14.5531 4.75009 14V6C4.75009 5.44688 5.14112 5 5.62513 5H7.37521Z" fill="#ED033B" fill-opacity="0.8"/>
</g>
<defs>
<clipPath id="clip0_3807_686">
<rect width="20" height="20" fill="white"/>
</clipPath>
</defs>
</svg>
