<svg width="26" height="24" viewBox="0 0 26 24" fill="none" xmlns="http://www.w3.org/2000/svg">
<path d="M12.9231 24C12.5504 24 12.1898 23.9503 11.8892 23.8383C7.29703 22.2093 0 16.4269 0 7.88394C0 3.53161 3.40208 0 7.58555 0C9.61717 0 11.5166 0.820726 12.9231 2.28808C14.3296 0.820726 16.229 0 18.2606 0C22.4441 0 25.8462 3.54404 25.8462 7.88394C25.8462 16.4394 18.5491 22.2093 13.9569 23.8383C13.6564 23.9503 13.2957 24 12.9231 24ZM7.58555 1.86529C4.39986 1.86529 1.80322 4.56373 1.80322 7.88394C1.80322 16.3772 9.70132 21.1026 12.4783 22.085C12.6947 22.1596 13.1635 22.1596 13.3799 22.085C16.1448 21.1026 24.055 16.3896 24.055 7.88394C24.055 4.56373 21.4583 1.86529 18.2726 1.86529C16.4454 1.86529 14.7503 2.74819 13.6564 4.27772C13.3198 4.75026 12.5504 4.75026 12.2138 4.27772C11.0958 2.73575 9.41281 1.86529 7.58555 1.86529Z" fill="white"/>
</svg>
