<svg width="44" height="42" viewBox="0 0 44 42" fill="none" xmlns="http://www.w3.org/2000/svg">
<path d="M15.05 7.25006C11.65 5.89006 9.66667 7.25006 9.1 8.10006H8.25L7.4 14.9L4 18.3V20.85L6.55 24.25L8.25 26.8V31.05L9.1 32.75H12.5L15.05 33.6L19.3 37H21.85L26.1 33.6H27.8L32.9 32.75L33.75 30.2L34.6 25.95L38 20.85L37.15 17.45L33.75 13.2V8.95L32.05 7.25006L26.95 6.4L22.7 3.85L20.15 3L15.05 7.25006Z" fill="#DEA000"/>
<path d="M21 12L18.3333 16.4444L17.4444 19.1111V17.3333V15.5556H16.5556H15.6667H13V18.2222V21.7778V26.2222L14.7778 27.1111L16.5556 26.2222L17.4444 25.3333L20.1111 27.1111L22.7778 28L25.4444 27.1111L27.2222 25.3333L29 20V18.2222L27.2222 17.3333H23.6667L22.7778 16.4444L23.6667 12.8889L22.7778 12H21Z" fill="white"/>
<path d="M21.0176 39.8126C19.9151 39.8126 18.8126 39.445 17.9551 38.71L15.19 36.3301C14.91 36.0851 14.2101 35.84 13.8426 35.84H10.815C8.22503 35.84 6.12505 33.7401 6.12505 31.1501V28.1575C6.12505 27.79 5.88005 27.1075 5.63505 26.8275L3.27254 24.045C1.83754 22.3475 1.83754 19.6701 3.27254 17.9726L5.63505 15.1901C5.88005 14.9101 6.12505 14.2276 6.12505 13.8601V10.8675C6.12505 8.27748 8.22503 6.1776 10.815 6.1776H13.8426C14.2101 6.1776 14.91 5.91505 15.19 5.68755L17.9551 3.30758C19.6701 1.83758 22.3475 1.83758 24.0625 3.30758L26.8275 5.68755C27.1075 5.93255 27.8076 6.1776 28.1751 6.1776H31.15C33.74 6.1776 35.8401 8.27748 35.8401 10.8675V13.8426C35.8401 14.2101 36.1025 14.9101 36.3475 15.1901L38.71 17.9551C40.18 19.6701 40.18 22.3476 38.71 24.0626L36.3475 26.8275C36.1025 27.1075 35.8575 27.8075 35.8575 28.175V31.1501C35.8575 33.7401 33.7575 35.84 31.1675 35.84H28.1925C27.825 35.84 27.125 36.1026 26.845 36.3301L24.0801 38.71C23.2051 39.445 22.1026 39.8126 21.0176 39.8126ZM10.815 8.78509C9.67754 8.78509 8.75005 9.71247 8.75005 10.85V13.8426C8.75005 14.8401 8.27754 16.1176 7.64754 16.8701L5.28503 19.6525C4.67253 20.37 4.67253 21.6126 5.28503 22.3301L7.64754 25.1125C8.29504 25.8825 8.76757 27.16 8.76757 28.14V31.1326C8.76757 32.2701 9.69505 33.1975 10.8326 33.1975H13.8601C14.8751 33.1975 16.1526 33.67 16.9226 34.335L19.6875 36.715C20.405 37.3275 21.6651 37.3275 22.3826 36.715L25.1475 34.335C25.9175 33.6875 27.195 33.1975 28.21 33.1975H31.1851C32.3226 33.1975 33.25 32.2701 33.25 31.1326V28.1575C33.25 27.1425 33.7225 25.865 34.3875 25.095L36.75 22.3301C37.3625 21.6126 37.3625 20.3525 36.75 19.635L34.3875 16.8701C33.74 16.1001 33.25 14.8226 33.25 13.8076V10.8325C33.25 9.69495 32.3226 8.76757 31.1851 8.76757H28.21C27.2125 8.76757 25.9175 8.29503 25.1475 7.63003L22.3826 5.25005C21.6651 4.63755 20.405 4.63755 19.6875 5.25005L16.9226 7.63003C16.1526 8.27753 14.8751 8.76757 13.8601 8.76757H10.815V8.78509Z" fill="#E7E8E9"/>
<path d="M24.4996 29.6972H21.3846C20.6496 29.6972 19.5471 29.4697 18.8996 28.8222L16.4846 26.9673L18.0946 24.8847L20.6321 26.8447C20.8071 26.9672 21.1221 27.0547 21.3846 27.0547H24.4996C24.9196 27.0547 25.427 26.6873 25.5146 26.3198L27.5096 20.2472C27.5621 20.0897 27.5621 19.9848 27.5446 19.9498C27.5096 19.8973 27.3871 19.8447 27.2121 19.8447H23.9396C23.3096 19.8447 22.7321 19.5823 22.3121 19.1098C21.9096 18.6373 21.7171 18.0073 21.8046 17.3598L22.2246 14.7173C22.2596 14.5773 22.1546 14.4022 22.0496 14.3672C21.9446 14.3497 21.7871 14.3848 21.7346 14.4373L18.3921 19.4072L16.2046 17.9373L19.5646 12.9498C20.2646 11.8998 21.7346 11.4448 22.9246 11.8823C24.2546 12.3198 25.1121 13.8248 24.8146 15.1898L24.4996 17.1847H27.2121C28.2446 17.1847 29.1546 17.6223 29.6971 18.3923C30.2221 19.1448 30.3446 20.1248 30.0121 21.0523L28.0521 27.0023C27.6846 28.5073 26.1271 29.6972 24.4996 29.6972Z" fill="#1818B7"/>
<path d="M15.5754 28.8048H14.7529C12.1804 28.8048 11.7954 27.0023 11.7954 25.9348V17.9198C11.7954 16.8523 12.1804 15.0498 14.7529 15.0498H15.5754C18.1479 15.0498 18.5329 16.8523 18.5329 17.9198V25.9348C18.5329 27.0023 18.1479 28.8048 15.5754 28.8048ZM14.4554 26.1623C14.5254 26.1798 14.6304 26.1798 14.7704 26.1798H15.5929C15.7329 26.1798 15.8379 26.1798 15.9079 26.1623C15.9079 26.1098 15.9254 26.0398 15.9254 25.9348V17.9198C15.9254 17.8148 15.9254 17.7448 15.9079 17.6923C15.8379 17.6748 15.7329 17.6748 15.5929 17.6748H14.7704C14.6304 17.6748 14.5254 17.6748 14.4554 17.6923C14.4554 17.7448 14.4379 17.8148 14.4379 17.9198V25.9348C14.4379 26.0398 14.4379 26.1098 14.4554 26.1623Z" fill="#1818B7"/>
</svg>
