<svg width="198" height="36" viewBox="0 0 198 36" fill="none" xmlns="http://www.w3.org/2000/svg">
<path d="M23.0849 15.8198H7.31159V15.8221L0.0444336 20.2028H17.5675C19.693 20.2028 21.4153 22.0219 21.4153 24.2669C21.4153 25.6447 20.7631 26.8619 19.769 27.5954H19.7795L25.1703 23.2949C26.2298 22.5704 26.9327 21.3152 26.9327 19.884C26.9327 17.639 25.2083 15.8198 23.0849 15.8198Z" fill="#F4F4F4"/>
<path d="M0.0400391 20.2031H17.5673C19.6928 20.2031 21.4152 22.0223 21.4152 24.2673C21.4152 26.5123 19.6928 28.3314 17.5673 28.3314H0.0400391V20.2031Z" fill="#1818B7"/>
<path d="M17.4661 21.8545H14.0045H0V26.6744H14.0045H17.4661C18.7262 26.6744 19.7478 25.5954 19.7478 24.2644C19.7478 22.9335 18.7262 21.8545 17.4661 21.8545Z" fill="#F4F4F4"/>
<path d="M17.103 23.1904H0.0336914V23.4089H17.103C17.5589 23.4089 17.9304 23.8013 17.9304 24.2828C17.9304 24.7644 17.5589 25.1567 17.103 25.1567H0.0336914V25.3752H17.103C17.6729 25.3752 18.1372 24.8848 18.1372 24.2828C18.1372 23.6809 17.6729 23.1904 17.103 23.1904Z" fill="#1818B7"/>
<path d="M17.371 22.3789H0.0336914V22.5974H17.371C18.2512 22.5974 18.9688 23.3531 18.9688 24.285C18.9688 25.2147 18.2533 25.9727 17.371 25.9727H0.0336914V26.1911H17.371C18.3652 26.1911 19.1757 25.3351 19.1757 24.285C19.1757 23.2328 18.3652 22.3789 17.371 22.3789Z" fill="#1818B7"/>
<path d="M16.8075 24.1089H0.0336914V24.3266H16.8075V24.1089Z" fill="#1818B7"/>
<path d="M27.1523 7.66895H11.379V7.67117L4.11182 12.0497H21.6349C23.7604 12.0497 25.4827 13.8688 25.4827 16.1138C25.4827 17.4916 24.8305 18.7088 23.8364 19.4423H23.8469L29.2377 15.1418C30.2972 14.4173 31.0001 13.1621 31.0001 11.7309C31.0001 9.48812 29.2778 7.66895 27.1523 7.66895Z" fill="#F4F4F4"/>
<path d="M4.10742 12.0493H21.6347C23.7602 12.0493 25.4825 13.8685 25.4825 16.1135C25.4825 18.3585 23.7602 20.1776 21.6347 20.1776H4.10742V12.0493Z" fill="#1818B7"/>
<path d="M21.5338 13.7041H18.0722H4.06982V18.524H18.0744H21.5359C22.796 18.524 23.8176 17.445 23.8176 16.1141C23.8155 14.7831 22.7939 13.7041 21.5338 13.7041Z" fill="#F4F4F4"/>
<path d="M21.1704 15.0391H4.10107V15.2575H21.1704C21.6263 15.2575 21.9977 15.6499 21.9977 16.1315C21.9977 16.613 21.6263 17.0054 21.1704 17.0054H4.10107V17.2239H21.1704C21.7402 17.2239 22.2046 16.7334 22.2046 16.1315C22.2046 15.5295 21.7402 15.0391 21.1704 15.0391Z" fill="#1818B7"/>
<path d="M21.4384 14.2256H4.10107V14.4441H21.4384C22.3186 14.4441 23.0362 15.1998 23.0362 16.1317C23.0362 17.0613 22.3186 17.8193 21.4384 17.8193H4.10107V18.0378H21.4384C22.4326 18.0378 23.2431 17.1817 23.2431 16.1317C23.2431 15.0817 22.4347 14.2256 21.4384 14.2256Z" fill="#1818B7"/>
<path d="M20.8749 15.9556H4.10107V16.1732H20.8749V15.9556Z" fill="#1818B7"/>
<path d="M52.39 8.8H55.744V27H52.39V20.136C50.674 20.7773 49.0447 21.098 47.502 21.098C45.1793 21.098 43.3853 20.5433 42.12 19.434C40.872 18.3073 40.248 16.6953 40.248 14.598V8.8H43.602V14.234C43.602 15.5167 43.9747 16.496 44.72 17.172C45.4653 17.848 46.5313 18.186 47.918 18.186C49.4953 18.186 50.986 17.8653 52.39 17.224V8.8ZM71.4789 13.116V15.872H66.6169V27H63.3669V15.872H58.4789V13.116H71.4789ZM86.227 20.136C86.227 20.3613 86.2096 20.682 86.175 21.098H75.281C75.4716 22.1207 75.9656 22.9353 76.763 23.542C77.5776 24.1313 78.583 24.426 79.779 24.426C81.3043 24.426 82.561 23.9233 83.549 22.918L85.291 24.92C84.0256 26.428 82.1623 27.182 79.701 27.182C77.3956 27.182 75.541 26.5233 74.137 25.206C72.733 23.8713 72.031 22.1553 72.031 20.058C72.031 17.9953 72.707 16.2967 74.059 14.962C75.411 13.6273 77.127 12.96 79.207 12.96C81.2523 12.96 82.9336 13.6187 84.251 14.936C85.5683 16.2533 86.227 17.9867 86.227 20.136ZM79.207 15.56C78.167 15.56 77.283 15.872 76.555 16.496C75.8443 17.1027 75.411 17.9173 75.255 18.94H83.133C82.9943 17.9347 82.5696 17.12 81.859 16.496C81.1483 15.872 80.2643 15.56 79.207 15.56ZM102.912 24.244H105.018V30.198H101.976V27H89.7817V13.116H93.0317V24.244H99.6617V13.116H102.912V24.244Z" fill="#F4F4F4"/>
<path d="M120 4.5L120 31.5" stroke="white" stroke-opacity="0.25" stroke-linecap="round"/>
<g clip-path="url(#clip0_3664_721)">
<path d="M157.738 18.3226C156.755 18.3226 155.918 18.6327 155.226 19.2348C154.479 19.8916 154.115 20.7126 154.115 21.7343C154.115 22.756 154.479 23.5952 155.226 24.2338C155.918 24.8359 156.773 25.146 157.756 25.146H158.23V23.504H157.866C157.338 23.504 156.883 23.3581 156.482 23.0479C156.045 22.7195 155.827 22.2816 155.827 21.7343C155.827 21.187 156.045 20.7491 156.464 20.4207C156.864 20.1288 157.319 19.9646 157.866 19.9646H161.106V25.146H162.836V19.9646H165.84L167.442 18.3226H157.738ZM168.844 18.3226L163.728 22.9019V25.3102L168.844 20.7491V22.5553H167.387L165.53 24.2338H168.826V25.146H170.664V18.3226H168.844ZM175.634 18.3226V20.9133H173.322V18.1584L171.502 19.8004V25.146H173.322V22.5553H175.634V25.146H177.455V18.3226H175.634ZM185.375 18.3226H182.953L179.967 21.114V18.1766L178.201 19.8186V25.146H179.967V23.504L180.768 22.756L183.518 25.292V22.9202L182.061 21.5519L185.375 18.3226ZM196.152 18.1219V20.8768H193.877V18.2861H192.074V23.504H191.219V18.3226H189.689L186.613 21.187V18.1949L184.828 19.8369V25.292L189.434 21.041V25.1643L193.877 25.1278V22.5371H196.152V25.1278H197.955V19.7639L196.152 18.1219ZM174.415 2.979L175.871 5.67918L179.075 5.2778L176.344 6.73736L177.619 8.87196L175.325 7.77729L172.904 10.3862L173.923 7.2482L168.115 6.88332L174.233 5.73392L174.415 2.979Z" fill="white"/>
<path d="M154.516 28.193V26.551H155.025L155.335 27.6821L155.644 26.551H156.154V28.193H155.826V26.8976L155.481 28.193H155.153L154.807 26.8976V28.193H154.516ZM156.445 27.372C156.445 27.2078 156.464 27.0618 156.518 26.9523C156.555 26.8611 156.609 26.7881 156.682 26.7334C156.755 26.6604 156.828 26.6239 156.901 26.5875C157.01 26.551 157.137 26.5145 157.265 26.5145C157.52 26.5145 157.72 26.5875 157.865 26.7334C158.011 26.8794 158.084 27.0983 158.084 27.3537C158.084 27.6274 158.011 27.8281 157.865 27.974C157.72 28.12 157.52 28.193 157.265 28.193C157.01 28.193 156.81 28.12 156.664 27.974C156.536 27.8463 156.445 27.6274 156.445 27.372ZM156.81 27.3537C156.81 27.5362 156.846 27.6821 156.937 27.7733C157.028 27.8646 157.137 27.9193 157.283 27.9193C157.429 27.9193 157.538 27.8646 157.629 27.7733C157.72 27.6821 157.756 27.5362 157.756 27.3355C157.756 27.153 157.72 27.0071 157.629 26.9159C157.538 26.8246 157.429 26.7699 157.283 26.7699C157.137 26.7699 157.028 26.8246 156.937 26.9159C156.846 27.0253 156.81 27.1713 156.81 27.3537ZM159.486 27.5727L159.814 27.6821C159.759 27.8646 159.686 27.9923 159.559 28.0835C159.431 28.1747 159.286 28.2112 159.103 28.2112C158.885 28.2112 158.685 28.1382 158.539 27.9923C158.393 27.8463 158.321 27.6456 158.321 27.372C158.321 27.0983 158.393 26.8794 158.539 26.7334C158.685 26.5875 158.885 26.5145 159.122 26.5145C159.322 26.5145 159.504 26.5692 159.631 26.6969C159.704 26.7699 159.759 26.8611 159.814 27.0071L159.468 27.0801C159.449 26.9888 159.413 26.9341 159.34 26.8794C159.267 26.8246 159.195 26.8064 159.103 26.8064C158.976 26.8064 158.867 26.8429 158.794 26.9341C158.721 27.0253 158.685 27.1713 158.685 27.3537C158.685 27.5544 158.721 27.7186 158.794 27.7916C158.867 27.8828 158.976 27.9193 159.103 27.9193C159.195 27.9193 159.267 27.8828 159.34 27.8281C159.413 27.7916 159.468 27.7004 159.486 27.5727ZM160.159 26.5327H160.505V27.226C160.578 27.226 160.633 27.2078 160.669 27.1713C160.687 27.1348 160.742 27.0618 160.797 26.9159C160.869 26.7334 160.942 26.6239 161.015 26.5875C161.088 26.551 161.197 26.5145 161.361 26.5145C161.361 26.5145 161.379 26.5145 161.416 26.5145V26.7517H161.361C161.288 26.7517 161.234 26.7517 161.197 26.7699C161.161 26.7881 161.143 26.8064 161.124 26.8429C161.106 26.8794 161.07 26.9523 161.033 27.0618C161.015 27.1165 160.997 27.1713 160.96 27.2078C160.942 27.2443 160.888 27.2807 160.833 27.3172C160.906 27.3355 160.979 27.372 161.015 27.4449C161.07 27.4997 161.124 27.5909 161.179 27.7186L161.416 28.1747H161.015L160.815 27.7551C160.815 27.7551 160.797 27.7369 160.797 27.7186C160.797 27.7186 160.778 27.6821 160.76 27.6456C160.724 27.5727 160.687 27.5179 160.651 27.4997C160.615 27.4814 160.578 27.4632 160.524 27.4632V28.193H160.178V26.5327H160.159ZM161.561 27.372C161.561 27.2078 161.579 27.0618 161.634 26.9523C161.67 26.8611 161.725 26.7881 161.798 26.7334C161.871 26.6604 161.944 26.6239 162.016 26.5875C162.126 26.551 162.253 26.5145 162.381 26.5145C162.635 26.5145 162.836 26.5875 162.981 26.7334C163.127 26.8794 163.2 27.0983 163.2 27.3537C163.2 27.6274 163.127 27.8281 162.981 27.974C162.836 28.12 162.635 28.193 162.381 28.193C162.126 28.193 161.925 28.12 161.78 27.974C161.634 27.8463 161.561 27.6274 161.561 27.372ZM161.907 27.3537C161.907 27.5362 161.944 27.6821 162.035 27.7733C162.126 27.8646 162.235 27.9193 162.381 27.9193C162.526 27.9193 162.635 27.8646 162.726 27.7733C162.817 27.6821 162.854 27.5362 162.854 27.3355C162.854 27.153 162.817 27.0071 162.726 26.9159C162.635 26.8246 162.526 26.7699 162.381 26.7699C162.235 26.7699 162.126 26.8246 162.035 26.9159C161.962 27.0253 161.907 27.1713 161.907 27.3537ZM163.509 26.5327H164.183C164.31 26.5327 164.42 26.5327 164.492 26.551C164.565 26.5692 164.62 26.5875 164.674 26.6239C164.729 26.6604 164.765 26.6969 164.802 26.7699C164.838 26.8246 164.857 26.8976 164.857 26.9706C164.857 27.0436 164.838 27.1165 164.784 27.1895C164.747 27.2625 164.674 27.299 164.602 27.3355C164.711 27.372 164.784 27.4085 164.838 27.4814C164.893 27.5544 164.929 27.6274 164.929 27.7369C164.929 27.8098 164.911 27.8828 164.875 27.9558C164.838 28.0288 164.784 28.0835 164.729 28.12C164.674 28.1565 164.583 28.193 164.492 28.193C164.438 28.193 164.292 28.2112 164.074 28.2112H163.491V26.5327H163.509ZM163.855 26.8064V27.1895H164.074C164.201 27.1895 164.292 27.1895 164.329 27.1895C164.383 27.1895 164.438 27.1713 164.474 27.1348C164.511 27.0983 164.529 27.0618 164.529 27.0071C164.529 26.9523 164.511 26.9159 164.492 26.8794C164.456 26.8429 164.42 26.8246 164.365 26.8246C164.329 26.8246 164.238 26.8246 164.074 26.8246H163.855V26.8064ZM163.855 27.4632V27.9011H164.183C164.31 27.9011 164.383 27.9011 164.42 27.8828C164.474 27.8828 164.511 27.8463 164.547 27.8098C164.583 27.7733 164.602 27.7369 164.602 27.6639C164.602 27.6091 164.583 27.5727 164.565 27.5362C164.547 27.4997 164.511 27.4814 164.456 27.4632C164.401 27.4449 164.31 27.4449 164.146 27.4449H163.855V27.4632ZM166.24 27.5727L166.568 27.6821C166.513 27.8646 166.44 27.9923 166.313 28.0835C166.186 28.1747 166.04 28.2112 165.858 28.2112C165.639 28.2112 165.439 28.1382 165.293 27.9923C165.148 27.8463 165.075 27.6456 165.075 27.372C165.075 27.0983 165.148 26.8794 165.293 26.7334C165.439 26.5875 165.639 26.5145 165.876 26.5145C166.076 26.5145 166.258 26.5692 166.386 26.6969C166.459 26.7699 166.513 26.8611 166.568 27.0071L166.222 27.0801C166.204 26.9888 166.167 26.9341 166.095 26.8794C166.022 26.8246 165.949 26.8064 165.858 26.8064C165.73 26.8064 165.621 26.8429 165.548 26.9341C165.476 27.0253 165.439 27.1713 165.439 27.3537C165.439 27.5544 165.476 27.7186 165.548 27.7916C165.621 27.8828 165.73 27.9193 165.858 27.9193C165.949 27.9193 166.022 27.8828 166.095 27.8281C166.167 27.7916 166.222 27.7004 166.24 27.5727ZM166.914 26.5327H167.26V27.226C167.332 27.226 167.387 27.2078 167.424 27.1713C167.442 27.1348 167.496 27.0618 167.551 26.9159C167.624 26.7334 167.697 26.6239 167.769 26.5875C167.842 26.551 167.951 26.5145 168.115 26.5145C168.115 26.5145 168.134 26.5145 168.17 26.5145V26.7517H168.115C168.043 26.7517 167.988 26.7517 167.951 26.7699C167.915 26.7881 167.897 26.8064 167.879 26.8429C167.86 26.8794 167.824 26.9523 167.788 27.0618C167.769 27.1165 167.751 27.1713 167.715 27.2078C167.697 27.2443 167.642 27.2807 167.587 27.3172C167.66 27.3355 167.733 27.372 167.769 27.4449C167.824 27.4997 167.879 27.5909 167.933 27.7186L168.17 28.1747H167.769L167.569 27.7551C167.569 27.7551 167.551 27.7369 167.551 27.7186C167.551 27.7186 167.533 27.6821 167.515 27.6456C167.478 27.5727 167.442 27.5179 167.405 27.4997C167.369 27.4814 167.332 27.4632 167.278 27.4632V28.193H166.914V26.5327ZM168.388 26.5327H168.716V27.6274L169.408 26.5327H169.754V28.1747H169.426V27.1165L168.734 28.193H168.388V26.5327ZM170.118 26.5327H170.446V27.6274L171.138 26.5327H171.483V28.1747H171.156V27.1165L170.464 28.193H170.118V26.5327ZM171.01 26.1313H171.174C171.156 26.2408 171.119 26.3138 171.065 26.3685C170.992 26.4233 170.919 26.4597 170.81 26.4597C170.701 26.4597 170.628 26.4233 170.555 26.3685C170.482 26.3138 170.446 26.2226 170.446 26.1313H170.61C170.61 26.1861 170.628 26.2226 170.664 26.2591C170.701 26.2773 170.737 26.2955 170.81 26.2955C170.864 26.2955 170.919 26.2773 170.955 26.2591C170.992 26.2408 171.01 26.1861 171.01 26.1313ZM172.812 26.5327H173.959V26.8064H173.14V28.1747H172.794V26.5327H172.812ZM174.069 27.372C174.069 27.2078 174.087 27.0618 174.141 26.9523C174.178 26.8611 174.232 26.7881 174.305 26.7334C174.378 26.6604 174.451 26.6239 174.524 26.5875C174.633 26.551 174.76 26.5145 174.888 26.5145C175.143 26.5145 175.343 26.5875 175.489 26.7334C175.634 26.8794 175.707 27.0983 175.707 27.3537C175.707 27.6274 175.634 27.8281 175.489 27.974C175.343 28.12 175.143 28.193 174.888 28.193C174.633 28.193 174.433 28.12 174.287 27.974C174.141 27.8463 174.069 27.6274 174.069 27.372ZM174.433 27.3537C174.433 27.5362 174.469 27.6821 174.56 27.7733C174.651 27.8646 174.76 27.9193 174.906 27.9193C175.052 27.9193 175.161 27.8646 175.252 27.7733C175.343 27.6821 175.379 27.5362 175.379 27.3355C175.379 27.153 175.343 27.0071 175.252 26.9159C175.161 26.8246 175.052 26.7699 174.906 26.7699C174.76 26.7699 174.651 26.8246 174.56 26.9159C174.469 27.0253 174.433 27.1713 174.433 27.3537ZM177.109 27.5727L177.437 27.6821C177.382 27.8646 177.309 27.9923 177.182 28.0835C177.054 28.1747 176.909 28.2112 176.727 28.2112C176.508 28.2112 176.308 28.1382 176.162 27.9923C176.017 27.8463 175.944 27.6456 175.944 27.372C175.944 27.0983 176.017 26.8794 176.162 26.7334C176.308 26.5875 176.508 26.5145 176.745 26.5145C176.945 26.5145 177.127 26.5692 177.255 26.6969C177.327 26.7699 177.382 26.8611 177.437 27.0071L177.091 27.0801C177.073 26.9888 177.036 26.9341 176.963 26.8794C176.891 26.8246 176.818 26.8064 176.727 26.8064C176.599 26.8064 176.49 26.8429 176.417 26.9341C176.344 27.0253 176.308 27.1713 176.308 27.3537C176.308 27.5544 176.344 27.7186 176.417 27.7916C176.49 27.8828 176.599 27.9193 176.727 27.9193C176.818 27.9193 176.891 27.8828 176.963 27.8281C177.036 27.7916 177.091 27.7004 177.109 27.5727ZM177.564 26.5327H177.946L178.347 27.3902L178.693 26.5327H179.057L178.474 27.7916C178.42 27.9193 178.347 28.0288 178.274 28.1017C178.201 28.1747 178.129 28.2112 178.019 28.2112C177.91 28.2112 177.837 28.2112 177.783 28.193V27.9375C177.837 27.9375 177.874 27.9375 177.91 27.9375C177.983 27.9375 178.056 27.9193 178.074 27.9011C178.11 27.8646 178.147 27.8098 178.165 27.7186L177.564 26.5327ZM179.257 26.5327H180.441V27.9011H180.586V28.5396H180.295V28.1747H179.221V28.5396H178.93V27.9011H179.075C179.148 27.7551 179.184 27.5909 179.221 27.4085C179.239 27.226 179.257 26.9888 179.257 26.6969V26.5327ZM179.585 26.8064C179.585 27.299 179.53 27.6639 179.439 27.9011H180.095V26.8064H179.585ZM182.425 28.193H182.043L181.897 27.8098H181.224L181.078 28.193H180.714L181.387 26.551H181.751L182.425 28.193ZM181.806 27.5362L181.569 26.9159L181.333 27.5362H181.806ZM182.644 28.193V26.551H183.19C183.408 26.551 183.536 26.551 183.59 26.5692C183.681 26.5875 183.772 26.6422 183.827 26.7334C183.9 26.8246 183.918 26.9159 183.918 27.0618C183.918 27.1713 183.9 27.2443 183.863 27.3172C183.827 27.3902 183.772 27.4449 183.718 27.4814C183.663 27.5179 183.59 27.5544 183.536 27.5544C183.445 27.5727 183.335 27.5727 183.172 27.5727H182.953V28.193H182.644ZM182.989 26.8064V27.2807H183.172C183.299 27.2807 183.39 27.2807 183.445 27.2625C183.499 27.2443 183.517 27.226 183.554 27.1895C183.572 27.153 183.59 27.1165 183.59 27.0618C183.59 27.0071 183.572 26.9523 183.536 26.9159C183.499 26.8794 183.445 26.8611 183.39 26.8429C183.354 26.8429 183.263 26.8246 183.135 26.8246H182.989V26.8064ZM185.283 27.5727L185.611 27.6821C185.556 27.8646 185.484 27.9923 185.356 28.0835C185.229 28.1747 185.083 28.2112 184.901 28.2112C184.683 28.2112 184.482 28.1382 184.337 27.9923C184.191 27.8463 184.118 27.6456 184.118 27.372C184.118 27.0983 184.191 26.8794 184.337 26.7334C184.482 26.5875 184.683 26.5145 184.919 26.5145C185.12 26.5145 185.302 26.5692 185.429 26.6969C185.502 26.7699 185.556 26.8611 185.611 27.0071L185.265 27.0801C185.247 26.9888 185.211 26.9341 185.138 26.8794C185.065 26.8246 184.992 26.8064 184.901 26.8064C184.774 26.8064 184.664 26.8429 184.592 26.9341C184.519 27.0253 184.482 27.1713 184.482 27.3537C184.482 27.5544 184.519 27.7186 184.592 27.7916C184.664 27.8828 184.774 27.9193 184.901 27.9193C184.992 27.9193 185.065 27.8828 185.138 27.8281C185.211 27.7916 185.247 27.7004 185.283 27.5727ZM186.267 28.193V26.8246H185.757V26.551H187.104V26.8246H186.594V28.193H186.267ZM187.359 26.5327H188.032C188.16 26.5327 188.269 26.5327 188.342 26.551C188.415 26.5692 188.469 26.5875 188.524 26.6239C188.579 26.6604 188.615 26.6969 188.651 26.7699C188.688 26.8246 188.706 26.8976 188.706 26.9706C188.706 27.0436 188.688 27.1165 188.633 27.1895C188.597 27.2625 188.524 27.299 188.451 27.3355C188.56 27.372 188.633 27.4085 188.688 27.4814C188.742 27.5544 188.779 27.6274 188.779 27.7369C188.779 27.8098 188.761 27.8828 188.724 27.9558C188.688 28.0288 188.633 28.0835 188.579 28.12C188.524 28.1565 188.433 28.193 188.342 28.193C188.287 28.193 188.142 28.2112 187.923 28.2112H187.341V26.5327H187.359ZM187.705 26.8064V27.1895H187.923C188.051 27.1895 188.142 27.1895 188.178 27.1895C188.233 27.1895 188.287 27.1713 188.324 27.1348C188.36 27.0983 188.378 27.0618 188.378 27.0071C188.378 26.9523 188.36 26.9159 188.342 26.8794C188.306 26.8429 188.269 26.8246 188.215 26.8246C188.178 26.8246 188.087 26.8246 187.923 26.8246H187.705V26.8064ZM187.705 27.4632V27.9011H188.032C188.16 27.9011 188.233 27.9011 188.269 27.8828C188.324 27.8828 188.36 27.8463 188.397 27.8098C188.433 27.7733 188.451 27.7369 188.451 27.6639C188.451 27.6091 188.433 27.5727 188.415 27.5362C188.397 27.4997 188.36 27.4814 188.306 27.4632C188.251 27.4449 188.16 27.4449 187.996 27.4449H187.705V27.4632ZM189.107 28.193V26.551H190.363V26.8246H189.434V27.1895H190.29V27.4632H189.434V27.9193H190.381V28.193H189.107ZM190.709 28.193V26.551H191.055V27.2078H191.728V26.551H192.074V28.193H191.728V27.4632H191.055V28.193H190.709ZM192.456 28.193V26.551H192.802V27.2078H193.476V26.551H193.822V28.193H193.476V27.4632H192.802V28.193H192.456ZM194.222 26.5327H194.568V27.1895H195.023C195.151 27.1895 195.242 27.2078 195.333 27.2443C195.424 27.2807 195.497 27.3355 195.551 27.4085C195.606 27.4814 195.642 27.5909 195.642 27.7004C195.642 27.8098 195.606 27.9011 195.551 27.9923C195.497 28.0653 195.424 28.12 195.351 28.1565C195.278 28.1747 195.169 28.193 195.023 28.193H194.222V26.5327ZM194.568 27.9011H194.896C195.005 27.9011 195.078 27.9011 195.115 27.8828C195.151 27.8646 195.187 27.8463 195.224 27.8098C195.26 27.7733 195.278 27.7369 195.278 27.6821C195.278 27.6091 195.26 27.5544 195.206 27.5179C195.151 27.4814 195.06 27.4632 194.914 27.4632H194.568V27.9011ZM195.843 26.5327H196.189V28.1747H195.843V26.5327ZM196.571 26.5327H196.899V27.6274L197.591 26.5327H197.936V28.1747H197.609V27.1165L196.917 28.193H196.571V26.5327ZM197.445 26.1313H197.609C197.591 26.2408 197.554 26.3138 197.499 26.3685C197.445 26.4233 197.354 26.4597 197.245 26.4597C197.135 26.4597 197.063 26.4233 196.99 26.3685C196.917 26.3138 196.88 26.2226 196.88 26.1313H197.044C197.044 26.1861 197.063 26.2226 197.099 26.2591C197.135 26.2955 197.172 26.2955 197.245 26.2955C197.299 26.2955 197.354 26.2773 197.39 26.2591C197.427 26.2408 197.445 26.1861 197.445 26.1313ZM154.898 30.5465V29.1782H154.388V28.9045H155.735V29.1782H155.226V30.5465H154.898ZM155.99 30.5465V28.9045H157.246V29.1782H156.318V29.5431H157.174V29.8167H156.318V30.2728H157.265V30.5465H155.99ZM157.429 30.5465L158.011 29.689L157.483 28.9045H157.884L158.23 29.4336L158.557 28.9045H158.958L158.43 29.7073L159.012 30.5465H158.594L158.211 29.9809L157.829 30.5465H157.429ZM159.231 30.5465V28.9045H159.577V29.5613H160.25V28.9045H160.596V30.5465H160.25V29.8167H159.577V30.5465H159.231ZM160.906 29.7437C160.906 29.5795 160.924 29.4336 160.979 29.3241C161.015 29.2329 161.07 29.1599 161.143 29.1052C161.215 29.0322 161.288 28.9957 161.361 28.9592C161.47 28.9227 161.598 28.8863 161.725 28.8863C161.98 28.8863 162.18 28.9592 162.326 29.1052C162.472 29.2511 162.544 29.4701 162.544 29.7255C162.544 29.9992 162.472 30.1999 162.326 30.3458C162.18 30.4918 161.98 30.5647 161.725 30.5647C161.47 30.5647 161.27 30.4918 161.124 30.3458C160.979 30.2181 160.906 29.9992 160.906 29.7437ZM161.252 29.7255C161.252 29.9079 161.288 30.0539 161.379 30.1451C161.47 30.2363 161.579 30.2911 161.725 30.2911C161.871 30.2911 161.98 30.2363 162.071 30.1451C162.162 30.0539 162.198 29.9079 162.198 29.7073C162.198 29.5248 162.162 29.3789 162.071 29.2876C161.98 29.1964 161.871 29.1417 161.725 29.1417C161.579 29.1417 161.47 29.1964 161.379 29.2876C161.288 29.3971 161.252 29.5431 161.252 29.7255ZM162.908 28.9045H164.11V30.5465H163.764V29.1782H163.254V29.8897C163.254 30.0904 163.254 30.2363 163.236 30.3093C163.218 30.3823 163.182 30.4553 163.127 30.4918C163.072 30.5283 162.981 30.5647 162.872 30.5647C162.836 30.5647 162.763 30.5647 162.654 30.5465V30.2911H162.726C162.799 30.2911 162.854 30.2728 162.872 30.2546C162.89 30.2363 162.908 30.1816 162.908 30.1086V29.8167V28.9045ZM164.42 29.7437C164.42 29.5795 164.438 29.4336 164.492 29.3241C164.529 29.2329 164.583 29.1599 164.656 29.1052C164.729 29.0322 164.802 28.9957 164.875 28.9592C164.984 28.9227 165.111 28.8863 165.239 28.8863C165.494 28.8863 165.694 28.9592 165.84 29.1052C165.985 29.2511 166.058 29.4701 166.058 29.7255C166.058 29.9992 165.985 30.1999 165.84 30.3458C165.694 30.4918 165.494 30.5647 165.239 30.5647C164.984 30.5647 164.784 30.4918 164.638 30.3458C164.492 30.2181 164.42 29.9992 164.42 29.7437ZM164.765 29.7255C164.765 29.9079 164.802 30.0539 164.893 30.1451C164.984 30.2363 165.093 30.2911 165.239 30.2911C165.384 30.2911 165.494 30.2363 165.585 30.1451C165.676 30.0539 165.712 29.9079 165.712 29.7073C165.712 29.5248 165.676 29.3789 165.585 29.2876C165.494 29.1964 165.384 29.1417 165.239 29.1417C165.093 29.1417 164.984 29.1964 164.893 29.2876C164.802 29.3971 164.765 29.5431 164.765 29.7255ZM166.368 28.9045H167.515V29.1782H166.695V30.5465H166.368V28.9045ZM167.733 28.9045H168.061V29.9992L168.753 28.9045H169.098V30.5465H168.771V29.4701L168.079 30.5465H167.733V28.9045ZM169.444 28.9045H169.79V29.3059C169.79 29.4336 169.79 29.5248 169.808 29.5613C169.827 29.5978 169.845 29.6343 169.9 29.6708C169.954 29.7073 170.027 29.7255 170.118 29.7255C170.191 29.7255 170.264 29.7255 170.318 29.7073C170.373 29.689 170.427 29.6708 170.464 29.6343V28.9227H170.81V30.5647H170.464V29.9079C170.391 29.9444 170.318 29.9627 170.264 29.9809C170.191 29.9992 170.136 29.9992 170.063 29.9992C169.9 29.9992 169.754 29.9627 169.645 29.8897C169.535 29.8167 169.481 29.6708 169.481 29.4883V28.9045H169.444ZM171.174 30.5465V28.9045H172.43V29.1782H171.502V29.5431H172.357V29.8167H171.502V30.2728H172.448V30.5465H171.174ZM173.868 29.9444L174.196 30.0539C174.141 30.2363 174.069 30.3641 173.941 30.4553C173.814 30.5465 173.668 30.583 173.486 30.583C173.268 30.583 173.067 30.51 172.922 30.3641C172.776 30.2181 172.703 30.0174 172.703 29.7437C172.703 29.4701 172.776 29.2511 172.922 29.1052C173.067 28.9592 173.268 28.8863 173.504 28.8863C173.705 28.8863 173.887 28.941 174.014 29.0687C174.087 29.1417 174.141 29.2329 174.196 29.3789L173.85 29.4518C173.832 29.3606 173.796 29.3059 173.723 29.2511C173.65 29.1964 173.577 29.1782 173.486 29.1782C173.359 29.1782 173.249 29.2147 173.177 29.3059C173.104 29.3971 173.067 29.5431 173.067 29.7255C173.067 29.9262 173.104 30.0904 173.177 30.1634C173.249 30.2546 173.359 30.2911 173.486 30.2911C173.577 30.2911 173.65 30.2546 173.723 30.1999C173.796 30.1634 173.85 30.0721 173.868 29.9444ZM174.542 28.9045H174.888V29.5978C174.961 29.5978 175.015 29.5795 175.052 29.5431C175.07 29.5066 175.125 29.4336 175.179 29.2876C175.252 29.1052 175.325 28.9957 175.398 28.9592C175.47 28.9227 175.58 28.8863 175.744 28.8863C175.744 28.8863 175.762 28.8863 175.798 28.8863V29.1234H175.744C175.671 29.1234 175.616 29.1234 175.598 29.1417C175.562 29.1599 175.543 29.1782 175.525 29.2147C175.507 29.2511 175.47 29.3241 175.434 29.4336C175.416 29.4883 175.398 29.5431 175.361 29.5795C175.343 29.616 175.288 29.6525 175.234 29.689C175.307 29.7073 175.379 29.7437 175.416 29.8167C175.452 29.8897 175.525 29.9627 175.58 30.0904L175.816 30.5465H175.416L175.216 30.1269C175.216 30.1269 175.197 30.1086 175.197 30.0904C175.197 30.0904 175.179 30.0539 175.161 30.0174C175.125 29.9444 175.088 29.8897 175.052 29.8715C175.015 29.8532 174.979 29.835 174.924 29.835V30.5647H174.578V28.9045H174.542ZM176.017 28.9045H176.344V29.9992L177.036 28.9045H177.382V30.5465H177.054V29.4701L176.363 30.5465H176.017V28.9045ZM177.746 28.9045H178.074V29.9992L178.766 28.9045H179.112V30.5465H178.784V29.4701L178.092 30.5465H177.746V28.9045ZM178.638 28.5031H178.802C178.784 28.6126 178.748 28.6856 178.693 28.7403C178.638 28.795 178.547 28.8315 178.438 28.8315C178.329 28.8315 178.256 28.795 178.183 28.7403C178.11 28.6856 178.074 28.5943 178.074 28.5031H178.238C178.238 28.5579 178.256 28.5943 178.292 28.6308C178.329 28.6491 178.365 28.6673 178.438 28.6673C178.493 28.6673 178.547 28.6491 178.584 28.6308C178.602 28.5943 178.62 28.5396 178.638 28.5031ZM180.077 28.9045H180.459L180.859 29.762L181.205 28.9045H181.569L180.987 30.1634C180.932 30.2911 180.859 30.4005 180.787 30.4735C180.714 30.5465 180.641 30.583 180.532 30.583C180.422 30.583 180.35 30.583 180.295 30.5647V30.3093C180.35 30.3093 180.386 30.3093 180.422 30.3093C180.495 30.3093 180.568 30.2911 180.586 30.2728C180.623 30.2363 180.659 30.1816 180.677 30.0904L180.077 28.9045ZM181.751 30.5465V28.9045H182.097V29.5613H182.771V28.9045H183.117V30.5465H182.771V29.8167H182.097V30.5465H181.751ZM183.499 28.9045H183.827V29.9992L184.519 28.9045H184.865V30.5465H184.537V29.4701L183.845 30.5465H183.499V28.9045ZM185.247 28.9045H185.921C186.048 28.9045 186.157 28.9045 186.23 28.9227C186.303 28.941 186.358 28.9592 186.412 28.9957C186.467 29.0322 186.503 29.0687 186.54 29.1417C186.576 29.1964 186.594 29.2694 186.594 29.3424C186.594 29.4153 186.576 29.4883 186.521 29.5613C186.467 29.6343 186.412 29.6708 186.339 29.7073C186.449 29.7437 186.521 29.7802 186.576 29.8532C186.631 29.9262 186.667 29.9992 186.667 30.1086C186.667 30.1816 186.649 30.2546 186.612 30.3276C186.576 30.4005 186.521 30.4553 186.467 30.4918C186.412 30.5283 186.321 30.5647 186.23 30.5647C186.175 30.5647 186.03 30.583 185.811 30.583H185.229V28.9045H185.247ZM185.575 29.1782V29.5613H185.793C185.921 29.5613 186.012 29.5613 186.048 29.5613C186.103 29.5613 186.157 29.5431 186.194 29.5066C186.23 29.4701 186.248 29.4336 186.248 29.3789C186.248 29.3241 186.23 29.2876 186.212 29.2511C186.175 29.2147 186.139 29.1964 186.084 29.1964C186.048 29.1964 185.957 29.1964 185.793 29.1964H185.575V29.1782ZM185.575 29.835V30.2728H185.902C186.03 30.2728 186.103 30.2728 186.139 30.2546C186.194 30.2546 186.23 30.2181 186.267 30.1816C186.303 30.1451 186.321 30.1086 186.321 30.0357C186.321 29.9809 186.303 29.9444 186.285 29.9079C186.267 29.8715 186.23 29.8532 186.175 29.835C186.121 29.8167 186.03 29.8167 185.866 29.8167H185.575V29.835ZM186.977 30.5465V28.9045H188.233V29.1782H187.304V29.5431H188.16V29.8167H187.304V30.2728H188.251V30.5465H186.977ZM188.597 30.5465V28.9045H189.143C189.361 28.9045 189.489 28.9045 189.544 28.9227C189.635 28.941 189.726 28.9957 189.78 29.0869C189.853 29.1782 189.871 29.2694 189.871 29.4153C189.871 29.5248 189.853 29.5978 189.817 29.6708C189.78 29.7437 189.726 29.7985 189.671 29.835C189.616 29.8715 189.544 29.9079 189.489 29.9079C189.398 29.9262 189.289 29.9262 189.125 29.9262H188.943V30.5465H188.597ZM188.943 29.1782V29.6525H189.125C189.252 29.6525 189.343 29.6525 189.398 29.6343C189.453 29.616 189.471 29.5978 189.507 29.5613C189.525 29.5248 189.544 29.4883 189.544 29.4336C189.544 29.3789 189.525 29.3241 189.489 29.2876C189.453 29.2511 189.398 29.2329 189.343 29.2147C189.307 29.2147 189.216 29.1964 189.088 29.1964H188.943V29.1782ZM191.237 29.9444L191.564 30.0539C191.51 30.2363 191.437 30.3641 191.31 30.4553C191.182 30.5465 191.036 30.583 190.854 30.583C190.636 30.583 190.436 30.51 190.29 30.3641C190.144 30.2181 190.072 30.0174 190.072 29.7437C190.072 29.4701 190.144 29.2511 190.29 29.1052C190.436 28.9592 190.636 28.8863 190.873 28.8863C191.073 28.8863 191.255 28.941 191.382 29.0687C191.455 29.1417 191.51 29.2329 191.564 29.3789L191.218 29.4518C191.2 29.3606 191.164 29.3059 191.091 29.2511C191.018 29.1964 190.945 29.1782 190.854 29.1782C190.727 29.1782 190.618 29.2147 190.545 29.3059C190.472 29.3971 190.436 29.5431 190.436 29.7255C190.436 29.9262 190.472 30.0904 190.545 30.1634C190.618 30.2546 190.727 30.2911 190.854 30.2911C190.945 30.2911 191.018 30.2546 191.091 30.1999C191.164 30.1634 191.218 30.0721 191.237 29.9444ZM191.892 28.9045H192.22V29.9992L192.912 28.9045H193.258V30.5465H192.93V29.4701L192.238 30.5465H191.892V28.9045ZM194.022 30.5465V29.1782H193.512V28.9045H194.86V29.1782H194.35V30.5465H194.022ZM195.115 30.5465V28.9045H196.371V29.1782H195.442V29.5431H196.298V29.8167H195.442V30.2728H196.389V30.5465H195.115ZM197.117 30.5465V29.1782H196.607V28.9045H197.955V29.1782H197.445V30.5465H197.117Z" fill="white"/>
<path fill-rule="evenodd" clip-rule="evenodd" d="M173.814 5.15026L169.79 5.91653C167.988 5.3327 166.167 5.35095 164.365 5.77057V17.1186H163.618V5.35095H159.777V17.1004H158.23V6.42737L153.369 2.3771V30.583H150.729L150.802 7.85044L146.541 6.70104V30.51H143.974L143.902 14.8746C139.842 17.8849 136.619 22.1723 135.418 26.0402C134.435 29.16 135.217 32.8636 137.73 34.0677C141.48 35.8557 147.233 35.1441 152.458 33.7211C154.88 33.0643 157.884 31.4952 158.758 31.0209H161.761C160.815 31.5865 155.262 34.7975 147.907 35.7644C143.064 36.3848 137.511 35.8009 135.29 32.7176C131.376 27.299 137.22 18.1403 143.883 13.0684V6.35439L146.523 5.07728L150.638 6.35439L153.405 0.0600586L158.139 3.8549L158.266 5.62461L159.759 3.98261C164.438 3.5265 169.08 3.27108 173.668 4.45697L173.814 5.15026ZM168.388 25.6205V24.5624H168.079C167.66 24.9272 167.223 25.2921 166.732 25.6753C166.55 25.8212 166.368 25.9672 166.185 26.1131H169.098C169.28 25.9489 169.463 25.7847 169.645 25.6205H168.388ZM178.074 9.89382L175.616 8.47075L175.07 8.7809C175.07 8.7809 176.599 10.6418 175.398 14.5644C174.87 16.2794 173.795 17.7389 173.795 17.7389V20.4391H174.524C174.706 20.2384 175.07 19.7276 175.179 19.5086V17.8484H176.363C176.363 17.8484 177.145 16.7537 177.764 14.1995C178.256 12.0649 178.074 9.89382 178.074 9.89382Z" fill="white"/>
</g>
<defs>
<clipPath id="clip0_3664_721">
<rect width="64" height="36" fill="white" transform="translate(134)"/>
</clipPath>
</defs>
</svg>
