<svg width="12" height="12" viewBox="0 0 12 12" fill="none" xmlns="http://www.w3.org/2000/svg">
<path d="M1.25323 12C0.934683 12 0.616137 11.8826 0.364652 11.6312C-0.121551 11.145 -0.121551 10.3402 0.364652 9.854L9.854 0.364652C10.3402 -0.121551 11.145 -0.121551 11.6312 0.364652C12.1174 0.850856 12.1174 1.65561 11.6312 2.14181L2.14181 11.6312C1.90709 11.8826 1.57178 12 1.25323 12Z" fill="#DE3500"/>
<path d="M10.7426 12C10.424 12 10.1055 11.8826 9.854 11.6312L0.364652 2.14181C-0.121551 1.65561 -0.121551 0.850856 0.364652 0.364652C0.850856 -0.121551 1.65561 -0.121551 2.14181 0.364652L11.6312 9.854C12.1174 10.3402 12.1174 11.145 11.6312 11.6312C11.3797 11.8826 11.0611 12 10.7426 12Z" fill="#DE3500"/>
</svg>
