<svg width="209" height="209" viewBox="0 0 209 209" fill="none" xmlns="http://www.w3.org/2000/svg">
<path d="M107.107 198.2C157.53 198.2 198.407 188.977 198.407 177.6C198.407 166.223 157.53 157 107.107 157C56.683 157 15.8066 166.223 15.8066 177.6C15.8066 188.977 56.683 198.2 107.107 198.2Z" fill="#00A171"/>
<path d="M192.706 190.3C211.906 196 211.006 178.8 192.506 186.5C211.006 178.8 186.306 171.5 187.106 184.9C186.406 171.5 162.606 181.4 181.906 187.1C162.706 181.4 163.606 198.6 182.106 190.9C163.606 198.6 188.306 205.9 187.506 192.5C188.206 205.9 211.906 196 192.706 190.3Z" fill="#FFCB29"/>
<path d="M196.606 187.8C196.706 190.8 193.006 193.4 188.306 193.6C183.606 193.8 179.606 191.6 179.506 188.6C179.406 185.6 183.106 183 187.806 182.8C192.506 182.6 196.506 184.9 196.606 187.8Z" fill="black"/>
<path d="M166.906 197.2C186.206 202.8 185.206 185.6 166.706 193.4C185.206 185.6 160.506 178.4 161.306 191.8C160.506 178.4 136.806 188.3 156.106 194C136.806 188.4 137.806 205.6 156.306 197.8C137.806 205.6 162.506 212.8 161.706 199.4C162.506 212.9 186.206 202.9 166.906 197.2Z" fill="#FFCB29"/>
<path d="M170.806 194.8C171.006 197.8 167.306 200.4 162.506 200.6C157.806 200.8 153.806 198.6 153.706 195.7C153.506 192.7 157.206 190.1 162.006 189.9C166.806 189.7 170.706 191.8 170.806 194.8Z" fill="black"/>
<path d="M106.806 196.6C126.106 202.1 125.006 184.9 106.506 192.8C124.906 184.9 100.206 177.8 101.106 191.3C100.206 177.9 76.6058 188 95.9058 193.5C76.6058 188 77.7058 205.2 96.2058 197.3C77.8058 205.2 102.506 212.3 101.606 198.8C102.506 212.3 126.106 202.1 106.806 196.6Z" fill="#FFCB29"/>
<path d="M110.705 194.1C110.905 197.1 107.205 199.7 102.505 200C97.8054 200.3 93.8054 198.1 93.6054 195.1C93.4054 192.1 97.1054 189.5 101.805 189.2C106.505 189 110.505 191.2 110.705 194.1Z" fill="black"/>
<path d="M135.206 199.1C154.506 204.7 153.406 187.5 135.006 195.3C153.506 187.5 128.806 180.3 129.606 193.7C128.806 180.3 105.106 190.3 124.406 195.9C105.106 190.3 106.206 207.5 124.606 199.7C106.106 207.5 130.806 214.7 130.006 201.3C130.906 214.7 154.506 204.7 135.206 199.1Z" fill="#FFCB29"/>
<path d="M139.106 196.6C139.306 199.6 135.606 202.2 130.906 202.4C126.206 202.6 122.206 200.4 122.106 197.5C121.906 194.5 125.606 191.9 130.306 191.7C135.006 191.4 139.006 193.6 139.106 196.6Z" fill="black"/>
<path d="M11.3062 184.7C-4.89382 187.9 -2.69382 173.9 11.8062 181.6C-2.69382 173.9 18.0062 169.8 16.4062 180.7C18.1062 169.8 36.7062 179.7 20.5062 182.9C36.7062 179.7 34.5062 193.7 20.0062 186C34.5062 193.7 13.8062 197.8 15.4062 186.9C13.7062 197.8 -4.89382 187.9 11.3062 184.7Z" fill="#FFCB29"/>
<path d="M8.30645 182.4C7.90645 184.8 10.8065 187.2 14.6065 187.8C18.4065 188.3 21.8064 186.8 22.2064 184.4C22.6064 182 19.7064 179.6 15.9064 179C12.0064 178.4 8.60645 180 8.30645 182.4Z" fill="black"/>
<path d="M37.7067 191.6C18.0067 195.4 20.6067 178.4 38.3067 187.9C20.7067 178.4 45.9067 173.5 43.9067 186.8C46.0067 173.5 68.6067 185.6 48.9067 189.5C68.6067 185.7 66.0067 202.7 48.3067 193.2C65.9067 202.7 40.7067 207.6 42.7067 194.3C40.6067 207.6 18.0067 195.4 37.7067 191.6Z" fill="#FFCB29"/>
<path d="M34.1062 188.8C33.7062 191.7 37.1062 194.7 41.8062 195.3C46.5062 196 50.6062 194.1 51.1062 191.2C51.5062 188.3 48.1062 185.3 43.4062 184.7C38.7062 184 34.5062 185.9 34.1062 188.8Z" fill="black"/>
<path d="M69.1064 196.3C49.4064 200.1 52.1064 183.1 69.7064 192.6C52.1064 183.1 77.4064 178.2 75.3064 191.5C77.4064 178.2 100.006 190.4 80.3064 194.2C100.006 190.4 97.3064 207.4 79.7064 197.9C97.3064 207.4 72.0064 212.3 74.1064 199C71.9064 212.3 49.3064 200.1 69.1064 196.3Z" fill="#FFCB29"/>
<path d="M65.406 193.5C65.006 196.4 68.406 199.4 73.006 200C77.706 200.7 81.806 198.9 82.306 195.9C82.706 193 79.306 190 74.706 189.4C70.006 188.7 65.906 190.6 65.406 193.5Z" fill="black"/>
<path d="M15.0058 164.9C-4.29421 159.5 -3.09421 176.7 15.3058 168.7C-3.09421 176.7 21.7058 183.7 20.7058 170.2C21.6058 183.6 45.2058 173.4 25.9058 168C45.2058 173.4 44.0058 156.2 25.6058 164.2C44.0058 156.2 19.2058 149.2 20.2058 162.7C19.2058 149.2 -4.39421 159.5 15.0058 164.9Z" fill="#FFCB29"/>
<path d="M11.1054 167.4C10.9054 164.4 14.6054 161.8 19.3054 161.5C24.0054 161.2 28.0054 163.4 28.2054 166.3C28.4054 169.3 24.7054 171.9 20.0054 172.2C15.2054 172.5 11.3054 170.4 11.1054 167.4Z" fill="black"/>
<path d="M40.6064 157.6C21.3064 152.2 22.5064 169.4 40.9064 161.4C22.5064 169.4 47.3064 176.3 46.3064 162.9C47.3064 176.3 70.8064 166 51.5064 160.6C70.8064 166 69.6064 148.8 51.2064 156.8C69.6064 148.8 44.8064 141.9 45.8064 155.3C44.8064 141.9 21.3064 152.2 40.6064 157.6Z" fill="#FFCB29"/>
<path d="M36.8066 160.1C36.6066 157.1 40.3066 154.5 45.0066 154.2C49.7066 153.9 53.7066 156.1 53.9066 159C54.1066 162 50.4066 164.6 45.7066 164.9C40.9066 165.2 36.9066 163 36.8066 160.1Z" fill="black"/>
<path d="M100.806 157.4C81.4062 152.2 82.8062 169.4 101.106 161.2C82.8062 169.4 107.706 176.1 106.606 162.7C107.706 176.1 131.106 165.6 111.706 160.4C131.106 165.6 129.706 148.4 111.406 156.6C129.706 148.4 104.806 141.7 105.906 155.1C104.806 141.6 81.4062 152.1 100.806 157.4Z" fill="#FFCB29"/>
<path d="M96.9064 159.9C96.7064 156.9 100.306 154.3 105.006 153.9C109.706 153.6 113.706 155.7 113.906 158.7C114.106 161.7 110.506 164.3 105.806 164.7C101.106 165 97.1064 162.9 96.9064 159.9Z" fill="black"/>
<path d="M72.3058 155.3C52.9058 150 54.2058 167.2 72.6058 159.1C54.2058 167.2 79.0058 174 78.0058 160.6C79.0058 174 102.506 163.7 83.2058 158.3C102.606 163.6 101.306 146.4 82.9058 154.5C101.306 146.4 76.5058 139.6 77.5058 153C76.4058 139.6 52.9058 150 72.3058 155.3Z" fill="#FFCB29"/>
<path d="M68.4062 157.9C68.2062 154.9 71.9062 152.3 76.6062 152C81.3062 151.7 85.3062 153.8 85.5062 156.8C85.7062 159.8 82.0062 162.4 77.3062 162.7C72.6062 163 68.6062 160.8 68.4062 157.9Z" fill="black"/>
<path d="M195.006 170.4C214.706 166.2 212.306 183.3 194.506 174.2C212.306 183.4 187.106 188.7 189.006 175.4C187.106 188.7 164.306 177 184.006 172.8C164.306 177 166.706 159.9 184.506 169C166.706 159.8 191.906 154.5 190.006 167.8C191.806 154.5 214.606 166.3 195.006 170.4Z" fill="#FFCB29"/>
<path d="M198.706 173.2C199.106 170.3 195.606 167.4 190.906 166.8C186.206 166.2 182.106 168.1 181.706 171.1C181.306 174 184.806 176.9 189.506 177.5C194.206 178 198.306 176.1 198.706 173.2Z" fill="black"/>
<path d="M169.906 161.4C189.606 157.3 187.106 174.4 169.406 165.1C187.206 174.3 162.006 179.6 163.906 166.3C162.006 179.6 139.206 167.8 158.906 163.7C139.206 167.8 141.706 150.7 159.406 160C141.606 150.8 166.806 145.5 164.906 158.8C166.806 145.5 189.606 157.3 169.906 161.4Z" fill="#FFCB29"/>
<path d="M173.606 164.2C174.006 161.3 170.506 158.4 165.906 157.8C161.206 157.2 157.106 159.1 156.706 162C156.306 164.9 159.806 167.8 164.406 168.4C169.006 169 173.206 167.1 173.606 164.2Z" fill="black"/>
<path d="M138.506 157.1C158.206 153 155.706 170.1 138.006 160.8C155.706 170.1 130.506 175.3 132.506 161.9C130.506 175.2 107.806 163.4 127.506 159.3C107.806 163.4 110.306 146.3 128.006 155.6C110.306 146.3 135.506 141.1 133.506 154.5C135.406 141.2 158.206 153.1 138.506 157.1Z" fill="#FFCB29"/>
<path d="M142.207 159.9C142.607 157 139.107 154.1 134.507 153.5C129.807 152.9 125.707 154.8 125.307 157.7C124.907 160.6 128.407 163.5 133.007 164.1C137.607 164.7 141.707 162.9 142.207 159.9Z" fill="black"/>
<path d="M28.9065 121.9C28.9065 121.9 18.4065 79.2 48.7065 73.8C48.7065 73.8 50.3065 54.8 63.3065 40.5C57.2065 36.6 53.2065 29.7 53.2065 22C53.2065 9.8 63.1065 0 75.2065 0C87.4065 0 97.2065 9.9 97.2065 22C97.2065 23 97.1065 24 97.0065 25C125.106 22.3 141.206 29.7 148.306 58.7C150.606 68.1 157.606 76 163.806 79C178.206 85.7 190.806 103.4 179.206 120.9C179.206 120.9 196.406 136.1 177.006 149.1C157.606 162.1 141.206 148.6 141.206 148.6C141.206 148.6 115.006 171 62.2065 147.9C60.7065 148.8 53.2065 155.3 39.8065 155.2C33.7065 155.2 28.7065 151.5 25.9065 147.6C20.9065 140.7 21.8065 129.9 28.9065 121.9Z" fill="#7470FA"/>
<path d="M177.407 107C177.407 107 179.107 101.9 173.807 103C173.807 103 173.007 99.8998 169.607 101.1C166.507 102.3 168.307 106.5 160.407 106.5C160.407 106.5 159.407 99.7998 154.907 101.6C151.907 102.8 150.207 112.2 154.907 116.9C154.007 120 153.107 123.1 152.007 126.1C151.207 128.3 150.207 130.5 149.007 132.5C148.307 133.7 147.007 135.7 145.807 135.7C144.207 135.7 142.207 133.8 141.107 132.8C139.407 131.3 137.907 129.6 136.407 127.8C133.407 124.1 130.707 120 127.807 116.2C126.207 114.1 122.807 114.2 120.907 115.9C118.807 117.8 119.007 120.7 120.607 122.8C124.007 127.3 127.007 132.1 130.807 136.3C134.807 140.7 140.507 146 146.907 145.4C153.907 144.7 157.607 137.6 160.107 131.9C161.707 128.2 163.007 124.3 164.007 120.3C164.807 120.3 165.607 120.3 166.307 120.1C177.807 117.8 182.707 107.7 177.407 107Z" fill="#DB7D65"/>
<path d="M177.506 106.7C177.406 106.6 177.206 106.6 177.106 106.8C176.406 107.6 175.706 108.4 174.906 109.2C173.806 110.2 172.006 111.5 171.006 112L167.906 108.8C168.906 108.2 170.806 106.8 171.906 105.7C172.706 105 173.406 104.1 174.006 103.2C174.106 103.1 174.106 102.9 173.906 102.8C173.806 102.7 173.606 102.7 173.506 102.9C172.906 103.8 172.306 104.6 171.506 105.3C170.206 106.5 168.306 108 167.506 108.4L166.506 107.4C166.406 107.3 166.206 107.3 166.106 107.4C166.006 107.5 166.006 107.7 166.106 107.8L171.706 113.5C171.806 113.6 171.806 113.6 171.906 113.6C172.006 113.6 172.106 113.6 172.106 113.5C172.206 113.4 172.206 113.2 172.106 113.1L171.606 112.6C172.606 112 174.406 110.8 175.506 109.8C176.306 109.1 177.106 108.2 177.706 107.4C177.606 107 177.606 106.8 177.506 106.7Z" fill="black"/>
<path d="M162.306 108.6C161.906 107.8 161.306 107.1 160.706 106.5C160.606 106.4 160.406 106.4 160.306 106.5C160.206 106.6 160.206 106.8 160.306 106.9C160.906 107.5 161.406 108.1 161.806 108.8C162.306 109.6 162.606 110.4 162.806 111.3C162.806 111.4 163.006 111.5 163.106 111.5C163.106 111.5 163.106 111.5 163.206 111.5C163.406 111.5 163.506 111.3 163.406 111.1C163.206 110.3 162.806 109.4 162.306 108.6Z" fill="black"/>
<path d="M95.3067 118.1C93.4067 116.5 90.0067 116.5 88.5067 118.6C85.7067 122.5 83.2067 126.6 80.3067 130.3C78.9067 132.1 77.5067 133.9 75.8067 135.4C74.7067 136.4 72.8067 138.4 71.2067 138.4C70.0067 138.5 68.7067 136.5 67.9067 135.3C66.6067 133.3 65.7067 131.2 64.8067 129.1C63.6067 126.1 62.5067 123.1 61.6067 120.1C66.1067 115.2 64.1067 106 61.1067 104.9C56.6067 103.2 55.8067 109.9 55.8067 109.9C48.0067 110.2 49.7067 105.9 46.5067 104.8C43.2067 103.7 42.4067 106.8 42.4067 106.8C37.0067 105.9 38.9067 110.9 38.9067 110.9C33.7067 111.8 38.8067 121.6 50.2067 123.6C51.0067 123.7 51.8067 123.8 52.5067 123.7C53.7067 127.6 55.0067 131.4 56.8067 135.1C59.5067 140.7 63.3067 147.6 70.3067 148.1C76.7067 148.6 82.2067 143.1 86.0067 138.6C89.6067 134.3 92.5067 129.5 95.7067 124.9C97.4067 122.8 97.5067 119.9 95.3067 118.1Z" fill="#DB7D65"/>
<path d="M50.0066 110.9L49.0066 112C48.2066 111.6 46.2066 110.2 44.9066 109.1C44.1066 108.4 43.4066 107.6 42.8066 106.8C42.7066 106.7 42.5066 106.6 42.4066 106.7C42.3066 106.8 42.2066 107 42.3066 107.1C42.9066 108 43.6066 108.8 44.5066 109.5C45.7066 110.5 47.6066 111.9 48.6066 112.5L45.6066 115.8C44.6066 115.3 42.8066 114.1 41.6066 113.1C40.8066 112.4 40.1066 111.6 39.4066 110.8C39.3066 110.7 39.1066 110.7 39.0066 110.8C38.9066 110.9 38.9066 111.1 39.0066 111.2C39.7066 112 40.5066 112.8 41.3066 113.6C42.4066 114.6 44.2066 115.7 45.2066 116.3L44.7066 116.9C44.6066 117 44.6066 117.2 44.7066 117.3C44.8066 117.4 44.8066 117.4 44.9066 117.4C45.0066 117.4 45.1066 117.4 45.1066 117.3L50.5066 111.5C50.6066 111.4 50.6066 111.2 50.5066 111.1C50.3066 110.7 50.1066 110.7 50.0066 110.9Z" fill="black"/>
<path d="M56.0064 109.9C55.9064 109.8 55.7064 109.8 55.6064 109.9C55.0064 110.5 54.5064 111.2 54.1064 112C53.6064 112.8 53.3064 113.8 53.1064 114.7C53.1064 114.9 53.2064 115 53.3064 115.1C53.3064 115.1 53.3064 115.1 53.4064 115.1C53.5064 115.1 53.7064 115 53.7064 114.9C53.9064 114 54.2064 113.2 54.6064 112.4C55.0064 111.7 55.5064 111 56.0064 110.4C56.1064 110.2 56.1064 110 56.0064 109.9Z" fill="black"/>
<path d="M122.106 191.9C122.306 191.9 122.606 201.6 117.906 205.8C117.706 206 117.406 206.2 117.106 206.4C116.406 206.9 115.606 207.3 114.606 207.5C114.406 207.6 114.206 207.6 113.906 207.6C113.806 207.6 113.606 207.6 113.406 207.7C112.506 207.8 111.806 207.1 111.806 206.2L112.306 174.3C112.306 172.9 113.206 172.9 117.106 170.8C121.306 168.6 123.206 167.9 129.906 164.6L140.106 182C135.606 184.5 126.706 189.3 122.106 191.9Z" fill="#DB7D65"/>
<path d="M122.205 192.1C122.305 192.1 122.305 192.1 122.405 192.1C122.605 192 122.605 191.8 122.505 191.7L119.705 186.5C119.605 186.3 119.405 186.3 119.305 186.4C119.105 186.5 119.105 186.7 119.205 186.8L122.005 192C122.005 192 122.105 192.1 122.205 192.1Z" fill="black"/>
<path d="M114.605 207.3C114.605 207.5 114.405 207.6 114.205 207.5C114.005 207.5 113.905 207.3 113.905 207.1L115.105 199.4C115.105 199.2 115.305 199.1 115.505 199.1C115.705 199.1 115.805 199.3 115.805 199.5L114.605 207.3Z" fill="black"/>
<path d="M117.805 206.1C117.805 206.2 117.605 206.3 117.405 206.3C117.205 206.3 117.105 206.1 117.105 205.9L118.205 199C118.205 198.8 118.405 198.7 118.605 198.8C118.805 198.8 118.905 199 118.905 199.2L117.805 206.1Z" fill="black"/>
<path d="M108.806 174.3L107.306 206.1C107.306 207 106.506 207.6 105.606 207.5C105.506 207.5 105.306 207.5 105.206 207.4C105.006 207.4 104.706 207.3 104.506 207.2C103.606 206.9 102.806 206.5 102.106 206C101.806 205.8 101.606 205.6 101.406 205.4C96.9061 200.9 97.906 191.3 98.106 191.3C93.706 188.4 85.1061 183 80.7061 180.2L91.5061 164.4C97.1061 167.3 99.9061 168.5 104.306 170.5C108.206 172.4 108.906 172.9 108.806 174.3Z" fill="#DB7D65"/>
<path d="M101.406 185.8C101.206 185.7 101.006 185.7 100.906 185.9L97.7063 190.9C97.6063 191.1 97.6063 191.3 97.8063 191.4C97.9063 191.4 97.9063 191.4 98.0063 191.5C98.1063 191.5 98.2063 191.5 98.3063 191.3L101.506 186.3C101.606 186.1 101.506 185.9 101.406 185.8Z" fill="black"/>
<path d="M104.606 207.2C104.606 207.4 104.806 207.5 105.006 207.5C105.206 207.5 105.306 207.3 105.306 207.1L104.606 199.3C104.606 199.1 104.406 199 104.206 199C104.006 199 103.906 199.2 103.906 199.4L104.606 207.2Z" fill="black"/>
<path d="M101.706 205.8C101.706 205.9 101.906 206 102.006 206C102.206 206 102.306 205.8 102.306 205.7L101.706 198.7C101.706 198.5 101.506 198.4 101.306 198.4C101.106 198.4 101.006 198.6 101.006 198.7L101.706 205.8Z" fill="black"/>
<path d="M92.2065 112.7L86.2065 146C69.6065 148.8 57.0065 155 55.3065 165.3C51.4065 188.6 94.8065 193.5 94.8065 193.5L103.707 167.6L96.1065 165.4L124.707 164.9L118.207 167.8L124.507 194.7C124.507 194.7 167.907 191.5 167.607 168.2C167.507 157.5 152.907 150.2 133.807 146.7L127.907 112.8H92.2065V112.7Z" fill="#F1E7C6"/>
<path d="M135.606 160.1C135.506 159.9 135.406 159.9 135.206 159.9L118.106 167.5C117.906 167.6 117.906 167.7 117.906 167.9C118.006 168 118.106 168.1 118.206 168.1H118.306L135.406 160.5C135.606 160.4 135.606 160.2 135.606 160.1Z" fill="black"/>
<path d="M103.806 167.3L83.1061 161C82.9061 160.9 82.8061 161 82.7061 161.2C82.7061 161.4 82.7061 161.5 82.9061 161.6L103.606 167.9H103.706C103.806 167.9 104.006 167.8 104.006 167.7C104.006 167.5 104.006 167.4 103.806 167.3Z" fill="black"/>
<path d="M158.407 40.9001C159.907 36.5001 156.907 33.5001 152.507 35.0001C150.407 30.8001 146.207 30.8001 144.107 35.0001C139.707 33.5001 136.707 36.5001 138.207 40.9001C134.007 43.0001 134.007 47.2001 138.207 49.3001C136.707 53.7001 139.707 56.7001 144.107 55.2001C146.207 59.4001 150.407 59.4001 152.507 55.2001C156.907 56.7001 159.907 53.7001 158.407 49.3001C162.607 47.2001 162.607 43.0001 158.407 40.9001Z" fill="#FFCB29"/>
<path d="M152.807 45.1001C152.807 47.6001 150.807 49.6001 148.307 49.6001C145.807 49.6001 143.807 47.6001 143.807 45.1001C143.807 42.6001 145.807 40.6001 148.307 40.6001C150.807 40.6001 152.807 42.6001 152.807 45.1001Z" fill="black"/>
<path d="M37.3067 81.0998C40.9067 72.0998 51.0067 67.7998 59.9067 71.3998C62.6067 52.8998 76.9067 37.1998 96.9067 33.6998C149.907 24.4998 149.107 76.0998 148.807 79.5998C148.807 79.5998 146.707 81.6998 145.907 82.7998C142.107 88.1998 141.507 95.0998 143.807 101.2L146.007 107C139.907 113.2 130.607 118.2 119.507 121C120.207 133.6 119.307 141.9 112.007 142.4C104.707 142.9 101.307 134.2 100.607 123.1C84.0067 122.7 71.9067 115.1 64.9067 100.8C60.1067 105.1 53.1067 106.5 46.8067 103.9C37.9067 100.4 33.7067 90.0998 37.3067 81.0998Z" fill="#DB7D65"/>
<path d="M44.2068 85.3996L59.7068 90.0996C59.9068 90.1996 60.0068 90.3996 59.9068 90.4996C59.9068 90.5996 59.7068 90.6996 59.6068 90.6996H59.5068L44.0068 85.9996C43.8068 85.8996 43.7068 85.6996 43.8068 85.5996C43.9068 85.3996 44.1068 85.2996 44.2068 85.3996Z" fill="black"/>
<path d="M64.7066 101C64.5066 101 64.3066 100.8 64.3066 100.6V96.0997C64.3066 95.8997 64.5066 95.7997 64.6066 95.6997C64.8066 95.6997 65.0066 95.8997 65.0066 96.0997V100.6C65.1066 100.8 64.9066 101 64.7066 101Z" fill="black"/>
<path d="M100.807 123.199C101.107 123.199 101.307 123.099 101.607 123.099C101.807 123.099 101.907 122.899 101.907 122.699C101.907 122.499 101.707 122.399 101.507 122.399C99.1072 122.699 96.7072 122.699 94.4072 122.399C92.1072 122.099 89.8072 121.599 87.7072 120.799C87.5072 120.699 87.3072 120.799 87.2072 120.999C87.1072 121.199 87.2072 121.399 87.4072 121.499C89.6072 122.299 91.9072 122.899 94.3072 123.199C96.4072 123.299 98.6072 123.399 100.807 123.199Z" fill="black"/>
<path d="M59.9062 71.3999C59.9062 71.3999 99.2063 56.1999 111.906 35.3999L147.906 62.9999C147.906 62.9999 141.106 25.1998 101.106 28.1998C61.1062 31.3998 59.9062 71.3999 59.9062 71.3999Z" fill="#7470FA"/>
<path d="M91.6976 115.579C99.8665 115.303 106.268 108.546 105.995 100.488C105.722 92.4292 98.879 86.1205 90.7101 86.397C82.5412 86.6734 76.14 93.4302 76.4127 101.489C76.6854 109.547 83.5286 115.856 91.6976 115.579Z" fill="#FFB6F9"/>
<path d="M133.307 92.9998C133.507 100.2 139.007 106.1 146.007 107C151.507 101.4 154.307 94.9998 153.207 88.4998C152.607 85.1998 151.107 82.1998 148.707 79.5998C148.707 79.2998 148.807 78.6998 148.807 77.7998C148.407 77.7998 148.007 77.7998 147.507 77.7998C139.407 78.1998 133.007 84.9998 133.307 92.9998Z" fill="#FFB6F9"/>
<path d="M105.507 80.3997C106.107 89.9997 102.407 98.2997 92.9066 99.4997C92.5066 99.5997 92.0066 99.5997 91.6066 99.5997C81.5066 100.2 72.9066 92.7997 72.2066 82.6997C71.6066 72.6997 79.3066 63.7997 89.5066 63.1997C89.7066 63.1997 89.9066 63.1997 90.2066 63.1997C100.007 62.9997 104.907 70.4997 105.507 80.3997Z" fill="white"/>
<path d="M87.9068 63.0996C82.8068 63.7996 78.4068 66.3996 75.5068 70.4996C74.6068 71.6996 73.9068 73.0996 73.3068 74.3996L69.3068 72.5996C69.1068 72.4996 68.9068 72.5996 68.8068 72.7996C68.7068 72.9996 68.8068 73.1996 69.0068 73.2996L73.0068 75.0996C72.6068 76.1996 72.3068 77.1996 72.1068 78.3996L67.8068 77.7996C67.6068 77.7996 67.4068 77.8996 67.4068 78.0996C67.4068 78.2996 67.5068 78.4996 67.7068 78.4996L72.0068 79.0996C71.8068 80.2996 71.8068 81.5996 71.8068 82.7996L67.3068 83.3996C67.1068 83.3996 67.0068 83.5996 67.0068 83.7996C67.0068 83.9996 67.2068 84.0996 67.4068 84.0996L71.9068 83.4996C71.9068 83.8996 72.0068 84.3996 72.0068 84.7996C72.0068 84.9996 72.2068 85.0996 72.4068 85.0996C72.6068 85.0996 72.7068 84.8996 72.7068 84.6996C72.0068 79.7996 73.2068 74.8996 76.0068 70.9996C78.8068 66.9996 83.1068 64.4996 88.0068 63.7996C88.7068 63.6996 89.5068 63.6996 90.2068 63.5996L93.2068 99.6996C102.707 98.3996 109.707 90.0996 109.107 80.4996C109.107 80.2996 109.107 80.0996 109.007 79.8996H109.107C109.307 79.8996 109.407 79.6996 109.407 79.4996C107.907 68.8996 98.4068 61.5996 87.9068 63.0996Z" fill="black"/>
<path d="M151.307 74.1997C151.907 83.1997 148.607 90.7997 139.707 91.9997C139.307 92.0997 138.907 92.0996 138.507 92.0996C129.007 92.6996 120.807 85.6997 120.207 76.2997C119.607 66.8997 126.807 58.5997 136.307 57.9997C136.507 57.9997 136.707 57.9997 136.907 57.9997C146.207 57.7997 150.707 64.9997 151.307 74.1997Z" fill="white"/>
<path d="M134.807 57.7997C130.007 58.3997 125.907 60.8997 123.107 64.7997C120.407 68.5997 119.207 73.2997 119.907 78.1997C119.907 78.3997 120.107 78.4997 120.307 78.4997C120.507 78.4997 120.607 78.2997 120.607 78.0997C120.007 73.4997 121.007 68.8997 123.707 65.2997C126.407 61.5997 130.307 59.1997 134.907 58.5997C135.607 58.4997 136.307 58.4997 136.907 58.3997L139.707 92.1997C148.607 90.9997 155.207 83.1997 154.607 74.1997C154.607 73.9997 154.607 73.8997 154.607 73.6997H154.707C154.907 73.6997 155.007 73.4997 155.007 73.2997C153.607 63.1997 144.807 56.4997 134.807 57.7997Z" fill="black"/>
<path d="M119.907 106.3C119.507 106.3 119.007 106.1 118.607 105.8C115.007 102.9 113.607 87.0999 113.507 86.4999C113.507 86.2999 113.607 86.1999 113.807 86.1999C114.007 86.1999 114.107 86.2999 114.107 86.4999C114.107 86.6999 115.507 102.6 118.907 105.4C119.207 105.7 119.607 105.8 119.907 105.8C120.207 105.8 120.507 105.6 120.707 105.3C123.107 102 120.207 85.9999 120.107 85.7999C120.107 85.5999 120.207 85.4999 120.307 85.3999C120.507 85.3999 120.607 85.4999 120.707 85.5999C120.807 86.2999 123.707 102 121.207 105.5C120.907 105.9 120.507 106.2 120.007 106.3C120.107 106.3 120.007 106.3 119.907 106.3Z" fill="black"/>
<path d="M143.406 27.6001C144.906 23.2001 141.906 20.2001 137.506 21.7001C135.406 17.5001 131.206 17.5001 129.106 21.7001C126.406 20.8001 124.306 21.5001 123.406 23.2001C122.906 22.5001 122.106 21.9001 121.106 21.4001C122.606 17.0001 119.606 14.0001 115.206 15.5001C113.106 11.3001 108.906 11.3001 106.806 15.5001C102.406 14.0001 99.4064 17.0001 100.906 21.4001C99.4064 22.2001 98.4065 23.2001 98.0065 24.3001C99.3065 19.8001 96.2064 16.9001 91.6064 18.4001C89.4064 14.0001 85.0064 14.0001 82.8064 18.4001C78.1064 16.8001 75.0064 20.0001 76.6064 24.6001C74.3064 25.8001 73.2064 27.6001 73.3064 29.3001C72.5064 29.2001 71.5065 29.3001 70.5065 29.7001C68.3065 25.3001 63.9064 25.3001 61.7064 29.7001C57.0064 28.1001 53.9065 31.3001 55.5065 35.9001C51.1065 38.1001 51.1065 42.5001 55.5065 44.7001C55.2065 45.7001 55.0064 46.7001 55.1064 47.5001C52.8064 44.5001 49.1065 45.0001 47.1065 48.9001C42.4065 47.4001 39.3064 50.5001 40.9064 55.1001C36.5064 57.3001 36.5064 61.7001 40.9064 63.9001C39.4064 68.6001 42.5065 71.7001 47.1065 70.1001C49.3065 74.5001 53.7064 74.5001 55.9064 70.1001C60.6064 71.7001 63.7064 68.5001 62.1064 63.9001C66.5064 61.7001 66.5064 57.3001 62.1064 55.1001C62.4064 54.1001 62.6065 53.1001 62.5065 52.3001C64.8065 55.3001 68.5065 54.8001 70.5065 50.9001C75.2065 52.5001 78.3064 49.3001 76.7064 44.7001C79.0064 43.5001 80.1065 41.7001 80.0065 40.0001C80.8065 40.1001 81.8064 40.0001 82.8064 39.6001C85.0064 44.0001 89.4064 44.0001 91.6064 39.6001C96.3064 41.1001 99.4065 38.0001 97.8065 33.4001C99.0065 32.8001 99.9065 32.0001 100.506 31.1001C100.006 34.7001 102.806 36.9001 106.706 35.6001C108.806 39.8001 113.006 39.8001 115.106 35.6001C117.806 36.5001 119.906 35.8001 120.806 34.1001C121.306 34.8001 122.106 35.4001 123.106 35.9001C121.606 40.3001 124.606 43.3001 129.006 41.8001C131.106 46.0001 135.306 46.0001 137.406 41.8001C141.806 43.3001 144.806 40.3001 143.306 35.9001C147.506 33.9001 147.506 29.7001 143.406 27.6001Z" fill="#FFCB29"/>
<path d="M56.2066 59.5999C56.2066 62.1999 54.1066 64.2999 51.5066 64.2999C48.9066 64.2999 46.8066 62.1999 46.8066 59.5999C46.8066 56.9999 48.9066 54.8999 51.5066 54.8999C54.0066 54.8999 56.2066 56.9999 56.2066 59.5999Z" fill="black"/>
<path d="M70.7066 40.4001C70.7066 43.0001 68.6066 45.1001 66.0066 45.1001C63.4066 45.1001 61.3066 43.0001 61.3066 40.4001C61.3066 37.8001 63.4066 35.7001 66.0066 35.7001C68.6066 35.6001 70.7066 37.8001 70.7066 40.4001Z" fill="black"/>
<path d="M91.9068 29.0003C91.9068 31.6003 89.8068 33.7003 87.2068 33.7003C84.6068 33.7003 82.5068 31.6003 82.5068 29.0003C82.5068 26.4003 84.6068 24.3003 87.2068 24.3003C89.8068 24.3003 91.9068 26.4003 91.9068 29.0003Z" fill="black"/>
<path d="M110.906 30.1001C113.392 30.1001 115.406 28.0854 115.406 25.6001C115.406 23.1148 113.392 21.1001 110.906 21.1001C108.421 21.1001 106.406 23.1148 106.406 25.6001C106.406 28.0854 108.421 30.1001 110.906 30.1001Z" fill="black"/>
<path d="M137.707 31.8003C137.707 34.3003 135.707 36.3003 133.207 36.3003C130.707 36.3003 128.707 34.3003 128.707 31.8003C128.707 29.3003 130.707 27.3003 133.207 27.3003C135.707 27.3003 137.707 29.4003 137.707 31.8003Z" fill="black"/>
<path d="M204.206 69.8004C208.806 64.1004 207.606 59.3004 205.206 57.8004C202.006 55.9004 197.106 57.8004 195.006 68.5004C195.006 68.6004 195.606 73.0004 195.806 74.5004C195.506 73.2004 194.206 68.7004 194.206 68.6004C188.106 59.6004 182.806 59.7004 180.606 62.7004C178.906 65.0004 179.706 69.9004 186.206 73.3004C183.306 77.3004 183.506 81.6004 186.506 83.4004C189.306 85.1004 194.806 82.3004 195.906 74.9004C199.806 81.4004 206.006 81.8004 207.906 79.2004C209.906 76.4004 208.506 72.3004 204.206 69.8004Z" fill="#FFB6F9"/>
<path d="M198.306 58.5002C198.106 58.1002 197.806 57.9002 197.406 57.8002C196.906 57.6002 196.406 57.7002 196.006 58.1002C194.606 59.3002 194.606 63.7002 194.806 66.3002C194.706 66.3002 194.606 66.3002 194.406 66.3002C194.206 66.3002 194.106 66.4002 193.906 66.5002C193.106 64.0002 191.406 59.9002 189.606 59.3002C189.106 59.1002 188.606 59.2002 188.206 59.6002C187.906 59.9002 187.706 60.2002 187.606 60.6002C187.506 61.4002 188.206 62.2002 188.206 62.2002C188.306 62.3002 188.506 62.3002 188.606 62.2002C188.706 62.1002 188.706 61.9002 188.606 61.8002C188.506 61.6002 188.106 61.1002 188.106 60.7002C188.106 60.5002 188.206 60.3002 188.406 60.1002C188.706 59.9002 189.006 59.8002 189.306 59.9002C190.806 60.4002 192.406 64.3002 193.306 66.9002C192.506 67.8002 192.206 69.7002 192.506 71.7002C193.006 74.4002 194.506 76.4002 196.006 76.2002C197.406 75.9002 198.206 73.5002 197.706 70.8002C197.306 68.7002 196.306 67.0002 195.206 66.5002C195.006 63.8002 195.006 59.6002 196.206 58.6002C196.406 58.4002 196.706 58.3002 197.106 58.4002C197.306 58.5002 197.506 58.6002 197.606 58.8002C197.806 59.2002 197.706 59.8002 197.606 60.0002C197.506 60.2002 197.606 60.3002 197.806 60.4002C198.006 60.5002 198.106 60.4002 198.206 60.2002C198.306 60.2002 198.706 59.2002 198.306 58.5002Z" fill="black"/>
<path d="M19.3062 81.3004C23.0062 76.8004 22.0062 73.0004 20.1062 71.8004C17.6062 70.3004 13.7062 71.8004 12.0062 80.3004C12.0062 80.4004 12.5062 83.9004 12.6062 85.0004C12.3062 84.0004 11.4062 80.4004 11.3062 80.3004C6.50617 73.1004 2.30617 73.3004 0.606174 75.6004C-0.693826 77.4004 -0.193828 81.3004 5.00617 84.0004C2.70617 87.2004 2.90617 90.6004 5.20617 92.0004C7.40617 93.3004 11.7062 91.2004 12.6062 85.2004C15.7062 90.4004 20.6062 90.7004 22.1062 88.6004C23.8062 86.6004 22.7062 83.4004 19.3062 81.3004Z" fill="#FFCB29"/>
<path d="M14.6066 72.4005C14.5066 72.1005 14.2066 71.9005 13.9066 71.8005C13.5066 71.7005 13.1066 71.8005 12.8066 72.0005C11.7066 73.0005 11.7066 76.4005 11.8066 78.5005C11.7066 78.5005 11.6066 78.5005 11.5066 78.5005C11.4066 78.5005 11.3066 78.6004 11.1066 78.6004C10.5066 76.7004 9.20656 73.4005 7.70656 72.9005C7.30656 72.8005 6.90656 72.9004 6.60656 73.1004C6.30656 73.3004 6.20656 73.6005 6.20656 73.9005C6.10656 74.5005 6.70656 75.1005 6.70656 75.2005C6.80656 75.3005 6.90656 75.3005 7.10656 75.2005C7.20656 75.1005 7.20656 75.0005 7.10656 74.8005C7.00656 74.7005 6.70656 74.3005 6.70656 73.9005C6.70656 73.7005 6.80655 73.6005 7.00655 73.5005C7.20655 73.3005 7.40656 73.3005 7.70656 73.4005C8.90656 73.8005 10.1066 76.9005 10.8066 79.0005C10.2066 79.7005 9.90655 81.2005 10.2066 82.8005C10.6066 85.0005 11.8066 86.6005 13.0066 86.3005C14.1066 86.1005 14.8066 84.2005 14.4066 82.0005C14.1066 80.3005 13.3066 79.0004 12.4066 78.6004C12.2066 76.4004 12.2066 73.2005 13.2066 72.4005C13.4066 72.2005 13.6066 72.2005 13.9066 72.3005C14.1066 72.4005 14.2066 72.5004 14.3066 72.6004C14.5066 72.9004 14.4066 73.4004 14.3066 73.6004C14.3066 73.7004 14.3066 73.9005 14.4066 73.9005C14.5066 73.9005 14.7066 73.9005 14.7066 73.8005C14.7066 73.7005 14.9066 73.0005 14.6066 72.4005Z" fill="black"/>
<path d="M40.0063 17.4002C36.7063 13.2002 29.1063 13.1002 20.7063 26.3002C20.6063 26.5002 19.1063 32.7002 18.6063 34.7002C18.8063 32.8002 19.6063 26.2003 19.5063 26.0003C16.1063 10.7003 9.00629 8.20025 4.50629 11.0003C1.10629 13.1003 -0.493712 20.1002 6.30629 28.2002C0.306288 32.0002 -1.59371 37.9002 1.40629 41.8002C4.30629 45.5002 13.0063 44.7002 18.4063 35.3002C20.2063 46.1002 28.2063 49.9002 32.2063 47.3002C36.4063 44.6002 36.7063 38.5002 32.3063 32.8002C41.6063 27.7002 42.5063 20.6002 40.0063 17.4002Z" fill="#8BDAE8"/>
<path d="M29.9066 14.5001C29.8066 14.0001 29.6066 13.5001 29.1066 13.2001C28.5066 12.7001 27.8066 12.6001 27.1066 12.8001C24.6066 13.7001 22.4066 19.5001 21.3066 23.0001C21.2066 23.0001 21.1066 22.9001 21.1066 22.9001C20.8066 22.8001 20.5066 22.9001 20.3066 22.9001C20.5066 19.2001 20.5066 12.8001 18.4066 11.1001C17.8066 10.6001 17.2066 10.5001 16.4066 10.8001C15.8066 11.0001 15.4066 11.3001 15.2066 11.8001C14.7066 12.8001 15.2066 14.1001 15.2066 14.1001C15.3066 14.3001 15.4066 14.3001 15.6066 14.3001C15.8066 14.2001 15.8066 14.1001 15.8066 13.9001C15.7066 13.6001 15.5066 12.7001 15.8066 12.1001C16.0066 11.8001 16.2066 11.6001 16.6066 11.5001C17.1066 11.3001 17.6066 11.4001 18.0066 11.7001C19.1066 12.6001 19.7066 15.2001 19.7066 19.4001C19.7066 20.8001 19.7066 22.2001 19.6066 23.3001C18.0066 24.1001 16.5066 26.4001 15.9066 29.4001C15.1066 33.3001 16.1066 36.8001 18.2066 37.2001C20.3066 37.6001 22.6066 34.8001 23.4066 30.9001C24.1066 27.6001 23.4066 24.5001 21.9066 23.4001C22.2066 22.4001 22.6066 21.2001 23.1066 20.1001C24.6066 16.2001 26.1066 14.0001 27.4066 13.5001C27.9066 13.3001 28.3066 13.4001 28.8066 13.8001C29.1066 14.1001 29.3066 14.3001 29.3066 14.7001C29.4066 15.5001 28.6066 16.4001 28.6066 16.4001C28.5066 16.5001 28.5066 16.7001 28.6066 16.8001C28.7066 16.9001 28.9066 16.9001 29.0066 16.8001C29.1066 16.7001 30.0066 15.6001 29.9066 14.5001Z" fill="black"/>
<path d="M143.907 26.0002C142.207 10.8002 149.107 5.50019 154.107 6.70019C158.007 7.60019 161.607 13.5002 157.807 23.2002C164.607 24.8002 168.207 29.7002 166.607 34.3002C165.107 38.7002 156.707 40.7002 148.707 33.5002C148.607 33.5002 143.907 26.2002 143.907 26.0002Z" fill="#FF6293"/>
<path d="M148.207 27.8003C146.907 25.6003 145.207 23.9003 143.807 23.3003C143.407 19.7003 142.407 13.9003 140.207 12.6003C139.607 12.2003 139.007 12.2003 138.307 12.6003C137.807 12.9003 137.507 13.2003 137.307 13.7003C137.007 14.7003 137.607 15.9003 137.707 15.9003C137.807 16.0003 138.007 16.1003 138.107 16.0003C138.207 15.9003 138.307 15.7003 138.207 15.6003C138.207 15.6003 137.607 14.6003 137.907 13.8003C138.007 13.5003 138.207 13.2003 138.607 13.0003C139.107 12.8003 139.607 12.8003 140.007 13.0003C141.207 13.7003 142.207 16.1003 142.907 20.1003C143.107 21.1003 143.207 22.1003 143.307 23.0003C142.807 22.9003 142.407 22.9003 142.007 23.1003C141.907 23.2003 141.807 23.3003 141.707 23.4003C139.707 20.9003 137.307 18.3003 135.407 18.3003C134.707 18.3003 134.107 18.6003 133.707 19.2003C133.407 19.7003 133.307 20.1003 133.307 20.6003C133.507 21.7003 134.607 22.4003 134.707 22.4003C134.807 22.5003 135.007 22.4003 135.107 22.3003C135.207 22.2003 135.107 22.0003 135.007 21.9003C134.707 21.7003 134.007 21.2003 133.907 20.5003C133.807 20.2003 133.907 19.8003 134.207 19.5003C134.507 19.0003 134.907 18.8003 135.407 18.9003C136.807 19.0003 138.807 20.7003 141.307 23.8003L141.407 23.9003C140.807 25.3003 141.307 28.1003 142.907 30.8003C144.807 34.2003 147.707 36.2003 149.207 35.3003C150.507 34.6003 150.207 31.1003 148.207 27.8003Z" fill="black"/>
</svg>
