<svg width="20" height="20" viewBox="0 0 20 20" fill="none" xmlns="http://www.w3.org/2000/svg">
<path d="M10 10C10.9093 10 11.7814 9.63125 12.4244 8.97487C13.0673 8.3185 13.4286 7.42826 13.4286 6.5C13.4286 5.57174 13.0673 4.6815 12.4244 4.02513C11.7814 3.36875 10.9093 3 10 3C9.09069 3 8.21862 3.36875 7.57563 4.02513C6.93265 4.6815 6.57143 5.57174 6.57143 6.5C6.57143 7.42826 6.93265 8.3185 7.57563 8.97487C8.21862 9.63125 9.09069 10 10 10ZM8.77589 11.3125C6.1375 11.3125 4 13.4945 4 16.1879C4 16.6363 4.35625 17 4.79554 17H15.2045C15.6438 17 16 16.6363 16 16.1879C16 13.4945 13.8625 11.3125 11.2241 11.3125H8.77589Z" fill="#242A33" fill-opacity="0.7"/>
</svg>
