<svg width="82" height="58" viewBox="0 0 82 58" fill="none" xmlns="http://www.w3.org/2000/svg">
<path d="M-0.000488281 57.3446V0H21.4847C25.9283 0 29.7574 0.846518 32.9719 2.53955C36.1864 4.17797 38.6682 6.55367 40.4173 9.66667C42.1664 12.7797 43.0409 16.4934 43.0409 20.8079C43.0409 25.0678 42.1664 28.7542 40.4173 31.8672C38.6682 34.9802 36.1864 37.3832 32.9719 39.0763C29.7574 40.7147 25.9283 41.5339 21.4847 41.5339H6.38127L11.4867 35.5537V57.3446H-0.000488281ZM11.4867 37.0283L6.38127 30.7203H20.8466C24.392 30.7203 27.0392 29.8465 28.7883 28.0989C30.5374 26.3512 31.4119 23.9209 31.4119 20.8079C31.4119 17.6403 30.5374 15.1827 28.7883 13.435C27.0392 11.6874 24.392 10.8136 20.8466 10.8136H6.38127L11.4867 4.50565V37.0283Z" fill="#31A8FF"/>
<path d="M63.9888 58C60.727 58 57.5834 57.5631 54.558 56.6893C51.5798 55.7608 49.2162 54.6139 47.4671 53.2486L51.1544 44.0734C52.9034 45.3296 54.9598 46.3672 57.3234 47.1864C59.7343 47.951 62.0979 48.3333 64.4142 48.3333C66.9669 48.3333 68.7633 47.9783 69.8033 47.2684C70.8905 46.5584 71.4342 45.5753 71.4342 44.3192C71.4342 43.2815 71.0087 42.5169 70.1578 42.0254C69.3542 41.4793 68.2669 41.0697 66.896 40.7966C65.5251 40.5235 64.0124 40.2505 62.3579 39.9774C60.7506 39.7043 59.1197 39.3493 57.4652 38.9124C55.8107 38.4209 54.298 37.7109 52.9271 36.7825C51.5562 35.8541 50.4453 34.5979 49.5944 33.0141C48.7908 31.4303 48.3889 29.3823 48.3889 26.8701C48.3889 24.0847 49.0744 21.6271 50.4453 19.4972C51.8634 17.3672 53.8962 15.7015 56.5434 14.5C59.1906 13.2439 62.3579 12.6158 66.0451 12.6158C68.6451 12.6158 71.2923 12.9435 73.9869 13.5989C76.6814 14.2542 78.9268 15.21 80.7232 16.4661L77.0359 25.5593C75.1923 24.3032 73.3251 23.4567 71.4342 23.0198C69.5905 22.5282 67.7942 22.2825 66.0451 22.2825C63.587 22.2825 61.7906 22.6648 60.6561 23.4294C59.5216 24.194 58.9543 25.177 58.9543 26.3785C58.9543 27.4708 59.3561 28.29 60.1597 28.8362C61.0106 29.3823 62.1215 29.8192 63.4924 30.1469C64.8633 30.4746 66.3524 30.775 67.9597 31.048C69.6142 31.2665 71.2687 31.6215 72.9232 32.113C74.5778 32.6045 76.0668 33.3145 77.3905 34.2429C78.7614 35.1168 79.8723 36.3456 80.7232 37.9294C81.5741 39.4586 81.9995 41.4793 81.9995 43.9915C81.9995 46.7222 81.2904 49.1525 79.8723 51.2825C78.4541 53.3578 76.3978 54.9962 73.7032 56.1977C71.056 57.3992 67.8178 58 63.9888 58Z" fill="#31A8FF"/>
</svg>
