<svg width="21" height="20" viewBox="0 0 21 20" fill="none" xmlns="http://www.w3.org/2000/svg">
<path d="M10.1338 17C9.90309 17 9.67984 16.971 9.49379 16.9057C6.651 15.9554 2.13379 12.5824 2.13379 7.59896C2.13379 5.0601 4.23984 3 6.8296 3C8.08728 3 9.26309 3.47876 10.1338 4.33472C11.0045 3.47876 12.1803 3 13.438 3C16.0277 3 18.1338 5.06736 18.1338 7.59896C18.1338 12.5896 13.6166 15.9554 10.7738 16.9057C10.5877 16.971 10.3645 17 10.1338 17ZM6.8296 4.08808C4.85751 4.08808 3.25007 5.66218 3.25007 7.59896C3.25007 12.5534 8.13937 15.3098 9.85844 15.8829C9.99239 15.9264 10.2826 15.9264 10.4166 15.8829C12.1282 15.3098 17.025 12.5606 17.025 7.59896C17.025 5.66218 15.4175 4.08808 13.4454 4.08808C12.3143 4.08808 11.265 4.60311 10.5877 5.49534C10.3794 5.77098 9.90309 5.77098 9.69472 5.49534C9.00263 4.59585 7.96077 4.08808 6.8296 4.08808Z" fill="#EE3217"/>
</svg>
