<svg width="20" height="20" viewBox="0 0 20 20" fill="none" xmlns="http://www.w3.org/2000/svg">
<path d="M16.9612 7.55636C17.054 7.7943 16.9757 8.05958 16.7755 8.22915L15.5193 9.3067C15.5513 9.5337 15.5687 9.76617 15.5687 10.0014C15.5687 10.2366 15.5513 10.469 15.5193 10.696L16.7755 11.7736C16.9757 11.9432 17.054 12.2084 16.9612 12.4464C16.8335 12.7718 16.6798 13.0836 16.5028 13.3845L16.3665 13.606C16.175 13.9068 15.9603 14.1912 15.7253 14.4593C15.5542 14.6562 15.2698 14.7218 15.0146 14.6452L13.3986 14.1612C13.0099 14.4429 12.5805 14.6781 12.1222 14.8558L11.7595 16.4175C11.7015 16.6663 11.4984 16.8633 11.2315 16.9043C10.8312 16.9672 10.4192 17 9.99855 17C9.57789 17 9.16593 16.9672 8.76558 16.9043C8.49868 16.8633 8.2956 16.6663 8.23758 16.4175L7.87494 14.8558C7.41657 14.6781 6.98721 14.4429 6.59846 14.1612L4.98545 14.648C4.73015 14.7246 4.44584 14.6562 4.27468 14.462C4.03969 14.194 3.82501 13.9096 3.63354 13.6087L3.49718 13.3872C3.32022 13.0863 3.16646 12.7746 3.03881 12.4491C2.94597 12.2112 3.0243 11.9459 3.22448 11.7763L4.48066 10.6988C4.44874 10.469 4.43134 10.2366 4.43134 10.0014C4.43134 9.76617 4.44874 9.5337 4.48066 9.3067L3.22448 8.22915C3.0243 8.05958 2.94597 7.7943 3.03881 7.55636C3.16646 7.2309 3.32022 6.91913 3.49718 6.61828L3.63354 6.39676C3.82501 6.09592 4.03969 5.81149 4.27468 5.54347C4.44584 5.34655 4.73015 5.28091 4.98545 5.35749L6.60136 5.84157C6.99011 5.55988 7.41947 5.32467 7.87785 5.1469L8.24048 3.58527C8.2985 3.33639 8.50158 3.13948 8.76848 3.09846C9.16883 3.03282 9.58079 3 10.0015 3C10.4221 3 10.8341 3.03282 11.2344 3.09572C11.5013 3.13675 11.7044 3.33366 11.7624 3.58254L12.1251 5.14417C12.5834 5.32194 13.0128 5.55714 13.4015 5.83884L15.0175 5.35476C15.2727 5.27818 15.5571 5.34655 15.7282 5.54073C15.9632 5.80875 16.1779 6.09318 16.3694 6.39402L16.5057 6.61555C16.6827 6.91639 16.8364 7.22817 16.9641 7.55362L16.9612 7.55636ZM10.0015 12.1893C10.617 12.1893 11.2073 11.9588 11.6426 11.5485C12.0778 11.1382 12.3223 10.5816 12.3223 10.0014C12.3223 9.42109 12.0778 8.86459 11.6426 8.45427C11.2073 8.04395 10.617 7.81344 10.0015 7.81344C9.38591 7.81344 8.79559 8.04395 8.36034 8.45427C7.92509 8.86459 7.68057 9.42109 7.68057 10.0014C7.68057 10.5816 7.92509 11.1382 8.36034 11.5485C8.79559 11.9588 9.38591 12.1893 10.0015 12.1893Z" fill="#242A33" fill-opacity="0.7"/>
</svg>
