<svg width="24" height="25" viewBox="0 0 24 25" fill="none" xmlns="http://www.w3.org/2000/svg">
<g clip-path="url(#clip0_3664_756)">
<path d="M12.375 0.875C5.95312 0.875 0.75 6.07812 0.75 12.5C0.75 18.9219 5.95312 24.125 12.375 24.125C18.7969 24.125 24 18.9219 24 12.5C24 6.07812 18.7969 0.875 12.375 0.875ZM17.7656 8.78281C17.5922 10.6203 16.8328 15.0828 16.4484 17.1406C16.2844 18.0125 15.9656 18.3031 15.6562 18.3312C14.9813 18.3922 14.4703 17.8859 13.8141 17.4547C12.7922 16.7844 12.2109 16.3672 11.2219 15.7109C10.0734 14.9562 10.8187 14.5391 11.4703 13.8594C11.6437 13.6813 14.6156 10.9766 14.6719 10.7328C14.6813 10.7 14.6859 10.5875 14.6156 10.5266C14.5453 10.4656 14.4469 10.4891 14.3766 10.5031C14.2734 10.525 12.6391 11.6047 9.47344 13.7422C9.01094 14.0609 8.59062 14.2156 8.2125 14.2062C7.79531 14.1969 6.99844 13.9719 6.40312 13.7797C5.67656 13.5453 5.09531 13.4188 5.14688 13.0156C5.17188 12.8062 5.46094 12.5922 6.01406 12.3734C9.40156 10.8984 11.6609 9.925 12.7922 9.45312C16.0219 8.1125 16.6922 7.87812 17.1281 7.86875C17.2266 7.86875 17.4375 7.89219 17.5781 8.00469C17.6699 8.08538 17.7284 8.19733 17.7422 8.31875C17.7675 8.47205 17.7754 8.62774 17.7656 8.78281Z" fill="white"/>
</g>
<defs>
<clipPath id="clip0_3664_756">
<rect width="23.25" height="24" fill="white" transform="translate(0.75 0.5)"/>
</clipPath>
</defs>
</svg>
