<svg width="24" height="25" viewBox="0 0 24 25" fill="none" xmlns="http://www.w3.org/2000/svg">
<path d="M10.7707 0.418091C8.89728 0.779853 7.32103 2.0008 6.58459 3.66749C6.23574 4.45561 6.15176 4.86906 6.11946 6.09L6.08716 7.23989H4.22667C3.20599 7.23989 2.21114 7.27219 2.0238 7.30449C1.06126 7.48537 0.298971 8.19597 0.0470296 9.15206C-0.0369509 9.48798 -0.0240308 9.99186 0.214991 14.9855C0.382952 18.4933 0.512152 20.6445 0.576753 20.9868C0.854534 22.4791 1.87522 23.6484 3.35457 24.1523L3.87137 24.3267L11.5071 24.3461C19.7049 24.3654 19.5111 24.3719 20.3897 24.036C21.6042 23.5838 22.6119 22.337 22.8574 20.9998C23.0125 20.1664 23.5099 9.66886 23.413 9.22312C23.2192 8.27349 22.3988 7.49183 21.4168 7.30449C21.2295 7.27219 20.2346 7.23989 19.214 7.23989H17.3535L17.3212 6.09C17.2953 5.20498 17.263 4.84322 17.1597 4.49437C16.8431 3.41555 16.378 2.66618 15.5382 1.86514C14.5563 0.928434 13.3224 0.411631 11.9141 0.359951C11.4942 0.340571 11.0614 0.366411 10.7707 0.418091ZM12.657 2.10416C14.033 2.453 15.2023 3.59643 15.564 4.95304C15.6286 5.17268 15.6868 5.7347 15.7062 6.2838L15.7449 7.23989H11.7203H7.69571L7.73447 6.2838C7.75385 5.7347 7.81199 5.17268 7.87659 4.95304C8.2319 3.61581 9.40762 2.45946 10.7513 2.11062C11.2229 1.98788 12.179 1.98142 12.657 2.10416ZM6.10008 10.1275C6.10008 11.2322 6.113 11.3614 6.22928 11.5552C6.50707 12.0074 7.10785 12.0591 7.50191 11.665L7.71509 11.4518V10.1857V8.9195H11.7203H15.7255V10.1857V11.4518L15.9387 11.665C16.3328 12.0591 16.9336 12.0074 17.2113 11.5552C17.3276 11.3614 17.3405 11.2322 17.3405 10.1275V8.91304L19.3496 8.93242L21.3587 8.9518L21.5783 9.19082C21.7786 9.41046 21.798 9.4686 21.798 9.8239C21.798 10.0371 21.6817 12.563 21.5396 15.4377C21.2618 21.116 21.2747 20.9868 20.8548 21.6135C20.5964 22.0011 20.3057 22.2401 19.8083 22.4727L19.4401 22.6471H11.7203H4.00057L3.58067 22.4468C2.72794 22.0463 2.26282 21.3551 2.15946 20.3667C2.12716 20.0566 1.9915 17.4984 1.85584 14.6819C1.58452 8.99702 1.57806 9.3717 2.0238 9.06808C2.23698 8.9195 2.27574 8.9195 4.16853 8.9195H6.10008V10.1275Z" fill="white"/>
</svg>
