<svg width="24" height="24" viewBox="0 0 24 24" fill="none" xmlns="http://www.w3.org/2000/svg">
<path d="M12.0217 21.2408C9.49751 21.2408 6.97334 20.84 4.57917 20.0383C3.66917 19.7242 2.97584 19.085 2.67251 18.2508C2.35834 17.4167 2.46667 16.4958 2.96501 15.6725L4.21084 13.6033C4.47084 13.17 4.70917 12.3033 4.70917 11.7942V8.66333C4.70917 4.63333 7.99167 1.35083 12.0217 1.35083C16.0517 1.35083 19.3342 4.63333 19.3342 8.66333V11.7942C19.3342 12.2925 19.5725 13.17 19.8325 13.6142L21.0675 15.6725C21.5333 16.4525 21.62 17.395 21.3058 18.2508C20.9917 19.1067 20.3092 19.7567 19.4533 20.0383C17.07 20.84 14.5458 21.2408 12.0217 21.2408ZM12.0217 2.97583C8.89084 2.97583 6.33417 5.52166 6.33417 8.66333V11.7942C6.33417 12.585 6.00917 13.755 5.60834 14.4375L4.36251 16.5067C4.12417 16.9075 4.05917 17.33 4.20001 17.6875C4.33001 18.0558 4.65501 18.3375 5.09917 18.4892C9.62751 20.0058 14.4267 20.0058 18.955 18.4892C19.345 18.3592 19.6483 18.0667 19.7892 17.6767C19.93 17.2867 19.8975 16.8642 19.6808 16.5067L18.435 14.4375C18.0233 13.7333 17.7092 12.5742 17.7092 11.7833V8.66333C17.7092 5.52166 15.1633 2.97583 12.0217 2.97583Z" fill="white"/>
<path d="M14.0367 3.26844C13.9608 3.26844 13.885 3.25761 13.8092 3.23594C13.495 3.14928 13.1917 3.08428 12.8992 3.04094C11.9783 2.92178 11.09 2.98678 10.2558 3.23594C9.95249 3.33344 9.62749 3.23594 9.42166 3.00844C9.21582 2.78094 9.15082 2.45594 9.26999 2.16344C9.71416 1.02594 10.7975 0.278442 12.0325 0.278442C13.2675 0.278442 14.3508 1.01511 14.795 2.16344C14.9033 2.45594 14.8492 2.78094 14.6433 3.00844C14.4808 3.18178 14.2533 3.26844 14.0367 3.26844Z" fill="white"/>
<path d="M12.0217 23.7109C10.9492 23.7109 9.90917 23.2776 9.15083 22.5193C8.3925 21.7609 7.95917 20.7209 7.95917 19.6484H9.58417C9.58417 20.2876 9.84417 20.9159 10.2992 21.3709C10.7542 21.8259 11.3825 22.0859 12.0217 22.0859C13.365 22.0859 14.4592 20.9918 14.4592 19.6484H16.0842C16.0842 21.8909 14.2642 23.7109 12.0217 23.7109Z" fill="white"/>
</svg>
